<?xml version="1.0" encoding="utf-8" standalone="no"?>
<!DOCTYPE svg PUBLIC "-//W3C//DTD SVG 1.1//EN"
  "http://www.w3.org/Graphics/SVG/1.1/DTD/svg11.dtd">
<svg xmlns:xlink="http://www.w3.org/1999/xlink" width="349.2pt" height="469.150925pt" viewBox="0 0 349.2 469.150925" xmlns="http://www.w3.org/2000/svg" version="1.1">
 <metadata>
  <rdf:RDF xmlns:dc="http://purl.org/dc/elements/1.1/" xmlns:cc="http://creativecommons.org/ns#" xmlns:rdf="http://www.w3.org/1999/02/22-rdf-syntax-ns#">
   <cc:Work>
    <dc:type rdf:resource="http://purl.org/dc/dcmitype/StillImage"/>
    <dc:date>2026-07-11T14:46:23.201787</dc:date>
    <dc:format>image/svg+xml</dc:format>
    <dc:creator>
     <cc:Agent>
      <dc:title>Matplotlib v3.10.9, https://matplotlib.org/</dc:title>
     </cc:Agent>
    </dc:creator>
   </cc:Work>
  </rdf:RDF>
 </metadata>
 <defs>
  <style type="text/css">*{stroke-linejoin: round; stroke-linecap: butt}</style>
 </defs>
 <g id="figure_1">
  <g id="patch_1">
   <path d="M 0 469.150925 
L 349.2 469.150925 
L 349.2 0 
L 0 0 
z
" style="fill: #ffffff"/>
  </g>
  <g id="axes_1">
   <g id="patch_2">
    <path d="M 174.600019 36.456367 
C 158.917507 36.456367 143.328814 38.880519 128.386876 43.642836 
C 113.444937 48.405153 99.328531 55.448656 86.53837 64.52351 
L 174.600019 188.638202 
z
" style="fill: #2a78d6; stroke: #ffffff; stroke-width: 2; stroke-linejoin: miter"/>
   </g>
   <g id="patch_3">
    <path d="M 86.538359 64.523518 
C 79.533114 69.493868 72.961233 75.048384 66.89315 81.127542 
C 60.825067 87.2067 55.282534 93.788705 50.324964 100.803002 
L 174.600019 188.638202 
z
" style="fill: #1baf7a; stroke: #ffffff; stroke-width: 2; stroke-linejoin: miter"/>
   </g>
   <g id="patch_4">
    <path d="M 50.324964 100.803002 
C 45.445829 107.706328 41.15036 115.004232 37.483185 122.6209 
C 33.81601 130.237567 30.789846 138.146553 28.436115 146.265772 
L 174.600019 188.638202 
z
" style="fill: #eda100; stroke: #ffffff; stroke-width: 2; stroke-linejoin: miter"/>
   </g>
   <g id="patch_5">
    <path d="M 28.436115 146.265772 
C 26.581021 152.664919 25.14817 159.178992 24.146805 165.765926 
C 23.14544 172.352861 22.57773 178.998453 22.447329 185.659791 
L 174.600019 188.638202 
z
" style="fill: #008300; stroke: #ffffff; stroke-width: 2; stroke-linejoin: miter"/>
   </g>
   <g id="patch_6">
    <path d="M 22.447329 185.659791 
C 22.322978 192.012534 22.596606 198.366816 23.266616 204.685351 
C 23.936627 211.003887 25.001695 217.274281 26.455572 223.459669 
L 174.600019 188.638202 
z
" style="fill: #4a3aa7; stroke: #ffffff; stroke-width: 2; stroke-linejoin: miter"/>
   </g>
   <g id="patch_7">
    <path d="M 26.455572 223.459669 
C 27.86708 229.464783 29.642415 235.378518 31.771745 241.168139 
C 33.901075 246.957759 36.380454 252.612556 39.196177 258.101222 
L 174.600019 188.638202 
z
" style="fill: #e34948; stroke: #ffffff; stroke-width: 2; stroke-linejoin: miter"/>
   </g>
   <g id="patch_8">
    <path d="M 39.196177 258.101222 
C 41.944285 263.458086 45.007857 268.647146 48.370754 273.641045 
C 51.73365 278.634943 55.389931 283.424894 59.32033 287.985601 
L 174.600019 188.638202 
z
" style="fill: #e87ba4; stroke: #ffffff; stroke-width: 2; stroke-linejoin: miter"/>
   </g>
   <g id="patch_9">
    <path d="M 59.32033 287.985601 
C 75.968547 307.303683 97.208629 322.130658 121.081617 331.099048 
C 144.954605 340.067438 170.703341 342.892793 195.953048 339.314539 
C 221.202755 335.736285 245.152599 325.867913 265.593725 310.619575 
C 286.034856 295.371237 302.318937 275.226547 312.944117 252.043421 
C 323.569296 228.8603 328.198578 203.374037 326.40501 177.935196 
C 324.611443 152.496355 316.451919 127.911765 302.678973 106.448833 
C 288.906028 84.985901 269.956481 67.325353 247.578043 55.096003 
C 225.199606 42.866653 200.102031 36.456367 174.600041 36.456367 
L 174.600019 188.638202 
z
" style="fill: #bdbbb2; stroke: #ffffff; stroke-width: 2; stroke-linejoin: miter"/>
   </g>
   <g id="matplotlib.axis_1"/>
   <g id="matplotlib.axis_2"/>
   <g id="text_1">
    <!-- 9.8% -->
    <g style="fill: #0b0b0b" transform="translate(125.27312 72.225443) scale(0.09 -0.09)">
     <defs>
      <path id="DejaVuSans-39" d="M 703 97 
L 703 672 
Q 941 559 1184 500 
Q 1428 441 1663 441 
Q 2288 441 2617 861 
Q 2947 1281 2994 2138 
Q 2813 1869 2534 1725 
Q 2256 1581 1919 1581 
Q 1219 1581 811 2004 
Q 403 2428 403 3163 
Q 403 3881 828 4315 
Q 1253 4750 1959 4750 
Q 2769 4750 3195 4129 
Q 3622 3509 3622 2328 
Q 3622 1225 3098 567 
Q 2575 -91 1691 -91 
Q 1453 -91 1209 -44 
Q 966 3 703 97 
z
M 1959 2075 
Q 2384 2075 2632 2365 
Q 2881 2656 2881 3163 
Q 2881 3666 2632 3958 
Q 2384 4250 1959 4250 
Q 1534 4250 1286 3958 
Q 1038 3666 1038 3163 
Q 1038 2656 1286 2365 
Q 1534 2075 1959 2075 
z
" transform="scale(0.015625)"/>
      <path id="DejaVuSans-2e" d="M 684 794 
L 1344 794 
L 1344 0 
L 684 0 
L 684 794 
z
" transform="scale(0.015625)"/>
      <path id="DejaVuSans-38" d="M 2034 2216 
Q 1584 2216 1326 1975 
Q 1069 1734 1069 1313 
Q 1069 891 1326 650 
Q 1584 409 2034 409 
Q 2484 409 2743 651 
Q 3003 894 3003 1313 
Q 3003 1734 2745 1975 
Q 2488 2216 2034 2216 
z
M 1403 2484 
Q 997 2584 770 2862 
Q 544 3141 544 3541 
Q 544 4100 942 4425 
Q 1341 4750 2034 4750 
Q 2731 4750 3128 4425 
Q 3525 4100 3525 3541 
Q 3525 3141 3298 2862 
Q 3072 2584 2669 2484 
Q 3125 2378 3379 2068 
Q 3634 1759 3634 1313 
Q 3634 634 3220 271 
Q 2806 -91 2034 -91 
Q 1263 -91 848 271 
Q 434 634 434 1313 
Q 434 1759 690 2068 
Q 947 2378 1403 2484 
z
M 1172 3481 
Q 1172 3119 1398 2916 
Q 1625 2713 2034 2713 
Q 2441 2713 2670 2916 
Q 2900 3119 2900 3481 
Q 2900 3844 2670 4047 
Q 2441 4250 2034 4250 
Q 1625 4250 1398 4047 
Q 1172 3844 1172 3481 
z
" transform="scale(0.015625)"/>
      <path id="DejaVuSans-25" d="M 4653 2053 
Q 4381 2053 4226 1822 
Q 4072 1591 4072 1178 
Q 4072 772 4226 539 
Q 4381 306 4653 306 
Q 4919 306 5073 539 
Q 5228 772 5228 1178 
Q 5228 1588 5073 1820 
Q 4919 2053 4653 2053 
z
M 4653 2450 
Q 5147 2450 5437 2106 
Q 5728 1763 5728 1178 
Q 5728 594 5436 251 
Q 5144 -91 4653 -91 
Q 4153 -91 3862 251 
Q 3572 594 3572 1178 
Q 3572 1766 3864 2108 
Q 4156 2450 4653 2450 
z
M 1428 4353 
Q 1159 4353 1004 4120 
Q 850 3888 850 3481 
Q 850 3069 1003 2837 
Q 1156 2606 1428 2606 
Q 1700 2606 1854 2837 
Q 2009 3069 2009 3481 
Q 2009 3884 1853 4118 
Q 1697 4353 1428 4353 
z
M 4250 4750 
L 4750 4750 
L 1831 -91 
L 1331 -91 
L 4250 4750 
z
M 1428 4750 
Q 1922 4750 2215 4408 
Q 2509 4066 2509 3481 
Q 2509 2891 2217 2550 
Q 1925 2209 1428 2209 
Q 931 2209 642 2551 
Q 353 2894 353 3481 
Q 353 4063 643 4406 
Q 934 4750 1428 4750 
z
" transform="scale(0.015625)"/>
     </defs>
     <use xlink:href="#DejaVuSans-39"/>
     <use xlink:href="#DejaVuSans-2e" transform="translate(63.623047 0)"/>
     <use xlink:href="#DejaVuSans-38" transform="translate(95.410156 0)"/>
     <use xlink:href="#DejaVuSans-25" transform="translate(159.033203 0)"/>
    </g>
   </g>
   <g id="text_2">
    <!-- 5.4% -->
    <g style="fill: #0b0b0b" transform="translate(74.848275 102.962904) scale(0.09 -0.09)">
     <defs>
      <path id="DejaVuSans-35" d="M 691 4666 
L 3169 4666 
L 3169 4134 
L 1269 4134 
L 1269 2991 
Q 1406 3038 1543 3061 
Q 1681 3084 1819 3084 
Q 2600 3084 3056 2656 
Q 3513 2228 3513 1497 
Q 3513 744 3044 326 
Q 2575 -91 1722 -91 
Q 1428 -91 1123 -41 
Q 819 9 494 109 
L 494 744 
Q 775 591 1075 516 
Q 1375 441 1709 441 
Q 2250 441 2565 725 
Q 2881 1009 2881 1497 
Q 2881 1984 2565 2268 
Q 2250 2553 1709 2553 
Q 1456 2553 1204 2497 
Q 953 2441 691 2322 
L 691 4666 
z
" transform="scale(0.015625)"/>
      <path id="DejaVuSans-34" d="M 2419 4116 
L 825 1625 
L 2419 1625 
L 2419 4116 
z
M 2253 4666 
L 3047 4666 
L 3047 1625 
L 3713 1625 
L 3713 1100 
L 3047 1100 
L 3047 0 
L 2419 0 
L 2419 1100 
L 313 1100 
L 313 1709 
L 2253 4666 
z
" transform="scale(0.015625)"/>
     </defs>
     <use xlink:href="#DejaVuSans-35"/>
     <use xlink:href="#DejaVuSans-2e" transform="translate(63.623047 0)"/>
     <use xlink:href="#DejaVuSans-34" transform="translate(95.410156 0)"/>
     <use xlink:href="#DejaVuSans-25" transform="translate(159.033203 0)"/>
    </g>
   </g>
   <g id="text_3">
    <!-- 5.3% -->
    <g style="fill: #0b0b0b" transform="translate(50.732118 136.987423) scale(0.09 -0.09)">
     <defs>
      <path id="DejaVuSans-33" d="M 2597 2516 
Q 3050 2419 3304 2112 
Q 3559 1806 3559 1356 
Q 3559 666 3084 287 
Q 2609 -91 1734 -91 
Q 1441 -91 1130 -33 
Q 819 25 488 141 
L 488 750 
Q 750 597 1062 519 
Q 1375 441 1716 441 
Q 2309 441 2620 675 
Q 2931 909 2931 1356 
Q 2931 1769 2642 2001 
Q 2353 2234 1838 2234 
L 1294 2234 
L 1294 2753 
L 1863 2753 
Q 2328 2753 2575 2939 
Q 2822 3125 2822 3475 
Q 2822 3834 2567 4026 
Q 2313 4219 1838 4219 
Q 1578 4219 1281 4162 
Q 984 4106 628 3988 
L 628 4550 
Q 988 4650 1302 4700 
Q 1616 4750 1894 4750 
Q 2613 4750 3031 4423 
Q 3450 4097 3450 3541 
Q 3450 3153 3228 2886 
Q 3006 2619 2597 2516 
z
" transform="scale(0.015625)"/>
     </defs>
     <use xlink:href="#DejaVuSans-35"/>
     <use xlink:href="#DejaVuSans-2e" transform="translate(63.623047 0)"/>
     <use xlink:href="#DejaVuSans-33" transform="translate(95.410156 0)"/>
     <use xlink:href="#DejaVuSans-25" transform="translate(159.033203 0)"/>
    </g>
   </g>
   <g id="text_4">
    <!-- 4.2% -->
    <g style="fill: #0b0b0b" transform="translate(39.796274 172.366373) scale(0.09 -0.09)">
     <defs>
      <path id="DejaVuSans-32" d="M 1228 531 
L 3431 531 
L 3431 0 
L 469 0 
L 469 531 
Q 828 903 1448 1529 
Q 2069 2156 2228 2338 
Q 2531 2678 2651 2914 
Q 2772 3150 2772 3378 
Q 2772 3750 2511 3984 
Q 2250 4219 1831 4219 
Q 1534 4219 1204 4116 
Q 875 4013 500 3803 
L 500 4441 
Q 881 4594 1212 4672 
Q 1544 4750 1819 4750 
Q 2544 4750 2975 4387 
Q 3406 4025 3406 3419 
Q 3406 3131 3298 2873 
Q 3191 2616 2906 2266 
Q 2828 2175 2409 1742 
Q 1991 1309 1228 531 
z
" transform="scale(0.015625)"/>
     </defs>
     <use xlink:href="#DejaVuSans-34"/>
     <use xlink:href="#DejaVuSans-2e" transform="translate(63.623047 0)"/>
     <use xlink:href="#DejaVuSans-32" transform="translate(95.410156 0)"/>
     <use xlink:href="#DejaVuSans-25" transform="translate(159.033203 0)"/>
    </g>
   </g>
   <g id="text_5">
    <!-- 4.0% -->
    <g style="fill: #0b0b0b" transform="translate(39.074517 204.280302) scale(0.09 -0.09)">
     <defs>
      <path id="DejaVuSans-30" d="M 2034 4250 
Q 1547 4250 1301 3770 
Q 1056 3291 1056 2328 
Q 1056 1369 1301 889 
Q 1547 409 2034 409 
Q 2525 409 2770 889 
Q 3016 1369 3016 2328 
Q 3016 3291 2770 3770 
Q 2525 4250 2034 4250 
z
M 2034 4750 
Q 2819 4750 3233 4129 
Q 3647 3509 3647 2328 
Q 3647 1150 3233 529 
Q 2819 -91 2034 -91 
Q 1250 -91 836 529 
Q 422 1150 422 2328 
Q 422 3509 836 4129 
Q 1250 4750 2034 4750 
z
" transform="scale(0.015625)"/>
     </defs>
     <use xlink:href="#DejaVuSans-34"/>
     <use xlink:href="#DejaVuSans-2e" transform="translate(63.623047 0)"/>
     <use xlink:href="#DejaVuSans-30" transform="translate(95.410156 0)"/>
     <use xlink:href="#DejaVuSans-25" transform="translate(159.033203 0)"/>
    </g>
   </g>
   <g id="text_6">
    <!-- 3.9% -->
    <g style="fill: #0b0b0b" transform="translate(46.048723 234.196188) scale(0.09 -0.09)">
     <use xlink:href="#DejaVuSans-33"/>
     <use xlink:href="#DejaVuSans-2e" transform="translate(63.623047 0)"/>
     <use xlink:href="#DejaVuSans-39" transform="translate(95.410156 0)"/>
     <use xlink:href="#DejaVuSans-25" transform="translate(159.033203 0)"/>
    </g>
   </g>
   <g id="text_7">
    <!-- 3.8% -->
    <g style="fill: #0b0b0b" transform="translate(59.659916 260.823977) scale(0.09 -0.09)">
     <use xlink:href="#DejaVuSans-33"/>
     <use xlink:href="#DejaVuSans-2e" transform="translate(63.623047 0)"/>
     <use xlink:href="#DejaVuSans-38" transform="translate(95.410156 0)"/>
     <use xlink:href="#DejaVuSans-25" transform="translate(159.033203 0)"/>
    </g>
   </g>
   <g id="text_8">
    <!-- 63.7% -->
    <g style="fill: #0b0b0b" transform="translate(273.746944 243.113921) scale(0.09 -0.09)">
     <defs>
      <path id="DejaVuSans-36" d="M 2113 2584 
Q 1688 2584 1439 2293 
Q 1191 2003 1191 1497 
Q 1191 994 1439 701 
Q 1688 409 2113 409 
Q 2538 409 2786 701 
Q 3034 994 3034 1497 
Q 3034 2003 2786 2293 
Q 2538 2584 2113 2584 
z
M 3366 4563 
L 3366 3988 
Q 3128 4100 2886 4159 
Q 2644 4219 2406 4219 
Q 1781 4219 1451 3797 
Q 1122 3375 1075 2522 
Q 1259 2794 1537 2939 
Q 1816 3084 2150 3084 
Q 2853 3084 3261 2657 
Q 3669 2231 3669 1497 
Q 3669 778 3244 343 
Q 2819 -91 2113 -91 
Q 1303 -91 875 529 
Q 447 1150 447 2328 
Q 447 3434 972 4092 
Q 1497 4750 2381 4750 
Q 2619 4750 2861 4703 
Q 3103 4656 3366 4563 
z
" transform="scale(0.015625)"/>
      <path id="DejaVuSans-37" d="M 525 4666 
L 3525 4666 
L 3525 4397 
L 1831 0 
L 1172 0 
L 2766 4134 
L 525 4134 
L 525 4666 
z
" transform="scale(0.015625)"/>
     </defs>
     <use xlink:href="#DejaVuSans-36"/>
     <use xlink:href="#DejaVuSans-33" transform="translate(63.623047 0)"/>
     <use xlink:href="#DejaVuSans-2e" transform="translate(127.246094 0)"/>
     <use xlink:href="#DejaVuSans-37" transform="translate(159.033203 0)"/>
     <use xlink:href="#DejaVuSans-25" transform="translate(222.65625 0)"/>
    </g>
   </g>
   <g id="text_9">
    <!-- Primary classes - harvard-dataverse -->
    <g style="fill: #0b0b0b" transform="translate(66.26625 16.318125) scale(0.12 -0.12)">
     <defs>
      <path id="DejaVuSans-50" d="M 1259 4147 
L 1259 2394 
L 2053 2394 
Q 2494 2394 2734 2622 
Q 2975 2850 2975 3272 
Q 2975 3691 2734 3919 
Q 2494 4147 2053 4147 
L 1259 4147 
z
M 628 4666 
L 2053 4666 
Q 2838 4666 3239 4311 
Q 3641 3956 3641 3272 
Q 3641 2581 3239 2228 
Q 2838 1875 2053 1875 
L 1259 1875 
L 1259 0 
L 628 0 
L 628 4666 
z
" transform="scale(0.015625)"/>
      <path id="DejaVuSans-72" d="M 2631 2963 
Q 2534 3019 2420 3045 
Q 2306 3072 2169 3072 
Q 1681 3072 1420 2755 
Q 1159 2438 1159 1844 
L 1159 0 
L 581 0 
L 581 3500 
L 1159 3500 
L 1159 2956 
Q 1341 3275 1631 3429 
Q 1922 3584 2338 3584 
Q 2397 3584 2469 3576 
Q 2541 3569 2628 3553 
L 2631 2963 
z
" transform="scale(0.015625)"/>
      <path id="DejaVuSans-69" d="M 603 3500 
L 1178 3500 
L 1178 0 
L 603 0 
L 603 3500 
z
M 603 4863 
L 1178 4863 
L 1178 4134 
L 603 4134 
L 603 4863 
z
" transform="scale(0.015625)"/>
      <path id="DejaVuSans-6d" d="M 3328 2828 
Q 3544 3216 3844 3400 
Q 4144 3584 4550 3584 
Q 5097 3584 5394 3201 
Q 5691 2819 5691 2113 
L 5691 0 
L 5113 0 
L 5113 2094 
Q 5113 2597 4934 2840 
Q 4756 3084 4391 3084 
Q 3944 3084 3684 2787 
Q 3425 2491 3425 1978 
L 3425 0 
L 2847 0 
L 2847 2094 
Q 2847 2600 2669 2842 
Q 2491 3084 2119 3084 
Q 1678 3084 1418 2786 
Q 1159 2488 1159 1978 
L 1159 0 
L 581 0 
L 581 3500 
L 1159 3500 
L 1159 2956 
Q 1356 3278 1631 3431 
Q 1906 3584 2284 3584 
Q 2666 3584 2933 3390 
Q 3200 3197 3328 2828 
z
" transform="scale(0.015625)"/>
      <path id="DejaVuSans-61" d="M 2194 1759 
Q 1497 1759 1228 1600 
Q 959 1441 959 1056 
Q 959 750 1161 570 
Q 1363 391 1709 391 
Q 2188 391 2477 730 
Q 2766 1069 2766 1631 
L 2766 1759 
L 2194 1759 
z
M 3341 1997 
L 3341 0 
L 2766 0 
L 2766 531 
Q 2569 213 2275 61 
Q 1981 -91 1556 -91 
Q 1019 -91 701 211 
Q 384 513 384 1019 
Q 384 1609 779 1909 
Q 1175 2209 1959 2209 
L 2766 2209 
L 2766 2266 
Q 2766 2663 2505 2880 
Q 2244 3097 1772 3097 
Q 1472 3097 1187 3025 
Q 903 2953 641 2809 
L 641 3341 
Q 956 3463 1253 3523 
Q 1550 3584 1831 3584 
Q 2591 3584 2966 3190 
Q 3341 2797 3341 1997 
z
" transform="scale(0.015625)"/>
      <path id="DejaVuSans-79" d="M 2059 -325 
Q 1816 -950 1584 -1140 
Q 1353 -1331 966 -1331 
L 506 -1331 
L 506 -850 
L 844 -850 
Q 1081 -850 1212 -737 
Q 1344 -625 1503 -206 
L 1606 56 
L 191 3500 
L 800 3500 
L 1894 763 
L 2988 3500 
L 3597 3500 
L 2059 -325 
z
" transform="scale(0.015625)"/>
      <path id="DejaVuSans-20" transform="scale(0.015625)"/>
      <path id="DejaVuSans-63" d="M 3122 3366 
L 3122 2828 
Q 2878 2963 2633 3030 
Q 2388 3097 2138 3097 
Q 1578 3097 1268 2742 
Q 959 2388 959 1747 
Q 959 1106 1268 751 
Q 1578 397 2138 397 
Q 2388 397 2633 464 
Q 2878 531 3122 666 
L 3122 134 
Q 2881 22 2623 -34 
Q 2366 -91 2075 -91 
Q 1284 -91 818 406 
Q 353 903 353 1747 
Q 353 2603 823 3093 
Q 1294 3584 2113 3584 
Q 2378 3584 2631 3529 
Q 2884 3475 3122 3366 
z
" transform="scale(0.015625)"/>
      <path id="DejaVuSans-6c" d="M 603 4863 
L 1178 4863 
L 1178 0 
L 603 0 
L 603 4863 
z
" transform="scale(0.015625)"/>
      <path id="DejaVuSans-73" d="M 2834 3397 
L 2834 2853 
Q 2591 2978 2328 3040 
Q 2066 3103 1784 3103 
Q 1356 3103 1142 2972 
Q 928 2841 928 2578 
Q 928 2378 1081 2264 
Q 1234 2150 1697 2047 
L 1894 2003 
Q 2506 1872 2764 1633 
Q 3022 1394 3022 966 
Q 3022 478 2636 193 
Q 2250 -91 1575 -91 
Q 1294 -91 989 -36 
Q 684 19 347 128 
L 347 722 
Q 666 556 975 473 
Q 1284 391 1588 391 
Q 1994 391 2212 530 
Q 2431 669 2431 922 
Q 2431 1156 2273 1281 
Q 2116 1406 1581 1522 
L 1381 1569 
Q 847 1681 609 1914 
Q 372 2147 372 2553 
Q 372 3047 722 3315 
Q 1072 3584 1716 3584 
Q 2034 3584 2315 3537 
Q 2597 3491 2834 3397 
z
" transform="scale(0.015625)"/>
      <path id="DejaVuSans-65" d="M 3597 1894 
L 3597 1613 
L 953 1613 
Q 991 1019 1311 708 
Q 1631 397 2203 397 
Q 2534 397 2845 478 
Q 3156 559 3463 722 
L 3463 178 
Q 3153 47 2828 -22 
Q 2503 -91 2169 -91 
Q 1331 -91 842 396 
Q 353 884 353 1716 
Q 353 2575 817 3079 
Q 1281 3584 2069 3584 
Q 2775 3584 3186 3129 
Q 3597 2675 3597 1894 
z
M 3022 2063 
Q 3016 2534 2758 2815 
Q 2500 3097 2075 3097 
Q 1594 3097 1305 2825 
Q 1016 2553 972 2059 
L 3022 2063 
z
" transform="scale(0.015625)"/>
      <path id="DejaVuSans-2d" d="M 313 2009 
L 1997 2009 
L 1997 1497 
L 313 1497 
L 313 2009 
z
" transform="scale(0.015625)"/>
      <path id="DejaVuSans-68" d="M 3513 2113 
L 3513 0 
L 2938 0 
L 2938 2094 
Q 2938 2591 2744 2837 
Q 2550 3084 2163 3084 
Q 1697 3084 1428 2787 
Q 1159 2491 1159 1978 
L 1159 0 
L 581 0 
L 581 4863 
L 1159 4863 
L 1159 2956 
Q 1366 3272 1645 3428 
Q 1925 3584 2291 3584 
Q 2894 3584 3203 3211 
Q 3513 2838 3513 2113 
z
" transform="scale(0.015625)"/>
      <path id="DejaVuSans-76" d="M 191 3500 
L 800 3500 
L 1894 563 
L 2988 3500 
L 3597 3500 
L 2284 0 
L 1503 0 
L 191 3500 
z
" transform="scale(0.015625)"/>
      <path id="DejaVuSans-64" d="M 2906 2969 
L 2906 4863 
L 3481 4863 
L 3481 0 
L 2906 0 
L 2906 525 
Q 2725 213 2448 61 
Q 2172 -91 1784 -91 
Q 1150 -91 751 415 
Q 353 922 353 1747 
Q 353 2572 751 3078 
Q 1150 3584 1784 3584 
Q 2172 3584 2448 3432 
Q 2725 3281 2906 2969 
z
M 947 1747 
Q 947 1113 1208 752 
Q 1469 391 1925 391 
Q 2381 391 2643 752 
Q 2906 1113 2906 1747 
Q 2906 2381 2643 2742 
Q 2381 3103 1925 3103 
Q 1469 3103 1208 2742 
Q 947 2381 947 1747 
z
" transform="scale(0.015625)"/>
      <path id="DejaVuSans-74" d="M 1172 4494 
L 1172 3500 
L 2356 3500 
L 2356 3053 
L 1172 3053 
L 1172 1153 
Q 1172 725 1289 603 
Q 1406 481 1766 481 
L 2356 481 
L 2356 0 
L 1766 0 
Q 1100 0 847 248 
Q 594 497 594 1153 
L 594 3053 
L 172 3053 
L 172 3500 
L 594 3500 
L 594 4494 
L 1172 4494 
z
" transform="scale(0.015625)"/>
     </defs>
     <use xlink:href="#DejaVuSans-50"/>
     <use xlink:href="#DejaVuSans-72" transform="translate(58.552734 0)"/>
     <use xlink:href="#DejaVuSans-69" transform="translate(99.666016 0)"/>
     <use xlink:href="#DejaVuSans-6d" transform="translate(127.449219 0)"/>
     <use xlink:href="#DejaVuSans-61" transform="translate(224.861328 0)"/>
     <use xlink:href="#DejaVuSans-72" transform="translate(286.140625 0)"/>
     <use xlink:href="#DejaVuSans-79" transform="translate(327.253906 0)"/>
     <use xlink:href="#DejaVuSans-20" transform="translate(386.433594 0)"/>
     <use xlink:href="#DejaVuSans-63" transform="translate(418.220703 0)"/>
     <use xlink:href="#DejaVuSans-6c" transform="translate(473.201172 0)"/>
     <use xlink:href="#DejaVuSans-61" transform="translate(500.984375 0)"/>
     <use xlink:href="#DejaVuSans-73" transform="translate(562.263672 0)"/>
     <use xlink:href="#DejaVuSans-73" transform="translate(614.363281 0)"/>
     <use xlink:href="#DejaVuSans-65" transform="translate(666.462891 0)"/>
     <use xlink:href="#DejaVuSans-73" transform="translate(727.986328 0)"/>
     <use xlink:href="#DejaVuSans-20" transform="translate(780.085938 0)"/>
     <use xlink:href="#DejaVuSans-2d" transform="translate(811.873047 0)"/>
     <use xlink:href="#DejaVuSans-20" transform="translate(847.957031 0)"/>
     <use xlink:href="#DejaVuSans-68" transform="translate(879.744141 0)"/>
     <use xlink:href="#DejaVuSans-61" transform="translate(943.123047 0)"/>
     <use xlink:href="#DejaVuSans-72" transform="translate(1004.402344 0)"/>
     <use xlink:href="#DejaVuSans-76" transform="translate(1045.515625 0)"/>
     <use xlink:href="#DejaVuSans-61" transform="translate(1104.695312 0)"/>
     <use xlink:href="#DejaVuSans-72" transform="translate(1165.974609 0)"/>
     <use xlink:href="#DejaVuSans-64" transform="translate(1205.337891 0)"/>
     <use xlink:href="#DejaVuSans-2d" transform="translate(1268.814453 0)"/>
     <use xlink:href="#DejaVuSans-64" transform="translate(1304.898438 0)"/>
     <use xlink:href="#DejaVuSans-61" transform="translate(1368.375 0)"/>
     <use xlink:href="#DejaVuSans-74" transform="translate(1429.654297 0)"/>
     <use xlink:href="#DejaVuSans-61" transform="translate(1468.863281 0)"/>
     <use xlink:href="#DejaVuSans-76" transform="translate(1530.142578 0)"/>
     <use xlink:href="#DejaVuSans-65" transform="translate(1589.322266 0)"/>
     <use xlink:href="#DejaVuSans-72" transform="translate(1650.845703 0)"/>
     <use xlink:href="#DejaVuSans-73" transform="translate(1691.958984 0)"/>
     <use xlink:href="#DejaVuSans-65" transform="translate(1744.058594 0)"/>
    </g>
   </g>
   <g id="legend_1">
    <g id="patch_10">
     <path d="M 90.735 374.889675 
L 106.735 374.889675 
L 106.735 369.289675 
L 90.735 369.289675 
z
" style="fill: #2a78d6; stroke: #ffffff; stroke-width: 2; stroke-linejoin: miter"/>
    </g>
    <g id="text_10">
     <!-- J60 - 60 - Programming, broadcast… -->
     <g style="fill: #0b0b0b" transform="translate(113.135 374.889675) scale(0.08 -0.08)">
      <defs>
       <path id="DejaVuSans-4a" d="M 628 4666 
L 1259 4666 
L 1259 325 
Q 1259 -519 939 -900 
Q 619 -1281 -91 -1281 
L -331 -1281 
L -331 -750 
L -134 -750 
Q 284 -750 456 -515 
Q 628 -281 628 325 
L 628 4666 
z
" transform="scale(0.015625)"/>
       <path id="DejaVuSans-6f" d="M 1959 3097 
Q 1497 3097 1228 2736 
Q 959 2375 959 1747 
Q 959 1119 1226 758 
Q 1494 397 1959 397 
Q 2419 397 2687 759 
Q 2956 1122 2956 1747 
Q 2956 2369 2687 2733 
Q 2419 3097 1959 3097 
z
M 1959 3584 
Q 2709 3584 3137 3096 
Q 3566 2609 3566 1747 
Q 3566 888 3137 398 
Q 2709 -91 1959 -91 
Q 1206 -91 779 398 
Q 353 888 353 1747 
Q 353 2609 779 3096 
Q 1206 3584 1959 3584 
z
" transform="scale(0.015625)"/>
       <path id="DejaVuSans-67" d="M 2906 1791 
Q 2906 2416 2648 2759 
Q 2391 3103 1925 3103 
Q 1463 3103 1205 2759 
Q 947 2416 947 1791 
Q 947 1169 1205 825 
Q 1463 481 1925 481 
Q 2391 481 2648 825 
Q 2906 1169 2906 1791 
z
M 3481 434 
Q 3481 -459 3084 -895 
Q 2688 -1331 1869 -1331 
Q 1566 -1331 1297 -1286 
Q 1028 -1241 775 -1147 
L 775 -588 
Q 1028 -725 1275 -790 
Q 1522 -856 1778 -856 
Q 2344 -856 2625 -561 
Q 2906 -266 2906 331 
L 2906 616 
Q 2728 306 2450 153 
Q 2172 0 1784 0 
Q 1141 0 747 490 
Q 353 981 353 1791 
Q 353 2603 747 3093 
Q 1141 3584 1784 3584 
Q 2172 3584 2450 3431 
Q 2728 3278 2906 2969 
L 2906 3500 
L 3481 3500 
L 3481 434 
z
" transform="scale(0.015625)"/>
       <path id="DejaVuSans-6e" d="M 3513 2113 
L 3513 0 
L 2938 0 
L 2938 2094 
Q 2938 2591 2744 2837 
Q 2550 3084 2163 3084 
Q 1697 3084 1428 2787 
Q 1159 2491 1159 1978 
L 1159 0 
L 581 0 
L 581 3500 
L 1159 3500 
L 1159 2956 
Q 1366 3272 1645 3428 
Q 1925 3584 2291 3584 
Q 2894 3584 3203 3211 
Q 3513 2838 3513 2113 
z
" transform="scale(0.015625)"/>
       <path id="DejaVuSans-2c" d="M 750 794 
L 1409 794 
L 1409 256 
L 897 -744 
L 494 -744 
L 750 256 
L 750 794 
z
" transform="scale(0.015625)"/>
       <path id="DejaVuSans-62" d="M 3116 1747 
Q 3116 2381 2855 2742 
Q 2594 3103 2138 3103 
Q 1681 3103 1420 2742 
Q 1159 2381 1159 1747 
Q 1159 1113 1420 752 
Q 1681 391 2138 391 
Q 2594 391 2855 752 
Q 3116 1113 3116 1747 
z
M 1159 2969 
Q 1341 3281 1617 3432 
Q 1894 3584 2278 3584 
Q 2916 3584 3314 3078 
Q 3713 2572 3713 1747 
Q 3713 922 3314 415 
Q 2916 -91 2278 -91 
Q 1894 -91 1617 61 
Q 1341 213 1159 525 
L 1159 0 
L 581 0 
L 581 4863 
L 1159 4863 
L 1159 2969 
z
" transform="scale(0.015625)"/>
       <path id="DejaVuSans-2026" d="M 2869 794 
L 3531 794 
L 3531 0 
L 2869 0 
L 2869 794 
z
M 4997 794 
L 5663 794 
L 5663 0 
L 4997 0 
L 4997 794 
z
M 738 794 
L 1403 794 
L 1403 0 
L 738 0 
L 738 794 
z
" transform="scale(0.015625)"/>
      </defs>
      <use xlink:href="#DejaVuSans-4a"/>
      <use xlink:href="#DejaVuSans-36" transform="translate(29.492188 0)"/>
      <use xlink:href="#DejaVuSans-30" transform="translate(93.115234 0)"/>
      <use xlink:href="#DejaVuSans-20" transform="translate(156.738281 0)"/>
      <use xlink:href="#DejaVuSans-2d" transform="translate(188.525391 0)"/>
      <use xlink:href="#DejaVuSans-20" transform="translate(224.609375 0)"/>
      <use xlink:href="#DejaVuSans-36" transform="translate(256.396484 0)"/>
      <use xlink:href="#DejaVuSans-30" transform="translate(320.019531 0)"/>
      <use xlink:href="#DejaVuSans-20" transform="translate(383.642578 0)"/>
      <use xlink:href="#DejaVuSans-2d" transform="translate(415.429688 0)"/>
      <use xlink:href="#DejaVuSans-20" transform="translate(451.513672 0)"/>
      <use xlink:href="#DejaVuSans-50" transform="translate(483.300781 0)"/>
      <use xlink:href="#DejaVuSans-72" transform="translate(541.853516 0)"/>
      <use xlink:href="#DejaVuSans-6f" transform="translate(580.716797 0)"/>
      <use xlink:href="#DejaVuSans-67" transform="translate(641.898438 0)"/>
      <use xlink:href="#DejaVuSans-72" transform="translate(705.375 0)"/>
      <use xlink:href="#DejaVuSans-61" transform="translate(746.488281 0)"/>
      <use xlink:href="#DejaVuSans-6d" transform="translate(807.767578 0)"/>
      <use xlink:href="#DejaVuSans-6d" transform="translate(905.179688 0)"/>
      <use xlink:href="#DejaVuSans-69" transform="translate(1002.591797 0)"/>
      <use xlink:href="#DejaVuSans-6e" transform="translate(1030.375 0)"/>
      <use xlink:href="#DejaVuSans-67" transform="translate(1093.753906 0)"/>
      <use xlink:href="#DejaVuSans-2c" transform="translate(1157.230469 0)"/>
      <use xlink:href="#DejaVuSans-20" transform="translate(1189.017578 0)"/>
      <use xlink:href="#DejaVuSans-62" transform="translate(1220.804688 0)"/>
      <use xlink:href="#DejaVuSans-72" transform="translate(1284.28125 0)"/>
      <use xlink:href="#DejaVuSans-6f" transform="translate(1323.144531 0)"/>
      <use xlink:href="#DejaVuSans-61" transform="translate(1384.326172 0)"/>
      <use xlink:href="#DejaVuSans-64" transform="translate(1445.605469 0)"/>
      <use xlink:href="#DejaVuSans-63" transform="translate(1509.082031 0)"/>
      <use xlink:href="#DejaVuSans-61" transform="translate(1564.0625 0)"/>
      <use xlink:href="#DejaVuSans-73" transform="translate(1625.341797 0)"/>
      <use xlink:href="#DejaVuSans-74" transform="translate(1677.441406 0)"/>
      <use xlink:href="#DejaVuSans-2026" transform="translate(1716.650391 0)"/>
     </g>
    </g>
    <g id="patch_11">
     <path d="M 90.735 386.632175 
L 106.735 386.632175 
L 106.735 381.032175 
L 90.735 381.032175 
z
" style="fill: #1baf7a; stroke: #ffffff; stroke-width: 2; stroke-linejoin: miter"/>
    </g>
    <g id="text_11">
     <!-- R86 - 86 - Human health activities -->
     <g style="fill: #0b0b0b" transform="translate(113.135 386.632175) scale(0.08 -0.08)">
      <defs>
       <path id="DejaVuSans-52" d="M 2841 2188 
Q 3044 2119 3236 1894 
Q 3428 1669 3622 1275 
L 4263 0 
L 3584 0 
L 2988 1197 
Q 2756 1666 2539 1819 
Q 2322 1972 1947 1972 
L 1259 1972 
L 1259 0 
L 628 0 
L 628 4666 
L 2053 4666 
Q 2853 4666 3247 4331 
Q 3641 3997 3641 3322 
Q 3641 2881 3436 2590 
Q 3231 2300 2841 2188 
z
M 1259 4147 
L 1259 2491 
L 2053 2491 
Q 2509 2491 2742 2702 
Q 2975 2913 2975 3322 
Q 2975 3731 2742 3939 
Q 2509 4147 2053 4147 
L 1259 4147 
z
" transform="scale(0.015625)"/>
       <path id="DejaVuSans-48" d="M 628 4666 
L 1259 4666 
L 1259 2753 
L 3553 2753 
L 3553 4666 
L 4184 4666 
L 4184 0 
L 3553 0 
L 3553 2222 
L 1259 2222 
L 1259 0 
L 628 0 
L 628 4666 
z
" transform="scale(0.015625)"/>
       <path id="DejaVuSans-75" d="M 544 1381 
L 544 3500 
L 1119 3500 
L 1119 1403 
Q 1119 906 1312 657 
Q 1506 409 1894 409 
Q 2359 409 2629 706 
Q 2900 1003 2900 1516 
L 2900 3500 
L 3475 3500 
L 3475 0 
L 2900 0 
L 2900 538 
Q 2691 219 2414 64 
Q 2138 -91 1772 -91 
Q 1169 -91 856 284 
Q 544 659 544 1381 
z
M 1991 3584 
L 1991 3584 
z
" transform="scale(0.015625)"/>
      </defs>
      <use xlink:href="#DejaVuSans-52"/>
      <use xlink:href="#DejaVuSans-38" transform="translate(69.482422 0)"/>
      <use xlink:href="#DejaVuSans-36" transform="translate(133.105469 0)"/>
      <use xlink:href="#DejaVuSans-20" transform="translate(196.728516 0)"/>
      <use xlink:href="#DejaVuSans-2d" transform="translate(228.515625 0)"/>
      <use xlink:href="#DejaVuSans-20" transform="translate(264.599609 0)"/>
      <use xlink:href="#DejaVuSans-38" transform="translate(296.386719 0)"/>
      <use xlink:href="#DejaVuSans-36" transform="translate(360.009766 0)"/>
      <use xlink:href="#DejaVuSans-20" transform="translate(423.632812 0)"/>
      <use xlink:href="#DejaVuSans-2d" transform="translate(455.419922 0)"/>
      <use xlink:href="#DejaVuSans-20" transform="translate(491.503906 0)"/>
      <use xlink:href="#DejaVuSans-48" transform="translate(523.291016 0)"/>
      <use xlink:href="#DejaVuSans-75" transform="translate(598.486328 0)"/>
      <use xlink:href="#DejaVuSans-6d" transform="translate(661.865234 0)"/>
      <use xlink:href="#DejaVuSans-61" transform="translate(759.277344 0)"/>
      <use xlink:href="#DejaVuSans-6e" transform="translate(820.556641 0)"/>
      <use xlink:href="#DejaVuSans-20" transform="translate(883.935547 0)"/>
      <use xlink:href="#DejaVuSans-68" transform="translate(915.722656 0)"/>
      <use xlink:href="#DejaVuSans-65" transform="translate(979.101562 0)"/>
      <use xlink:href="#DejaVuSans-61" transform="translate(1040.625 0)"/>
      <use xlink:href="#DejaVuSans-6c" transform="translate(1101.904297 0)"/>
      <use xlink:href="#DejaVuSans-74" transform="translate(1129.6875 0)"/>
      <use xlink:href="#DejaVuSans-68" transform="translate(1168.896484 0)"/>
      <use xlink:href="#DejaVuSans-20" transform="translate(1232.275391 0)"/>
      <use xlink:href="#DejaVuSans-61" transform="translate(1264.0625 0)"/>
      <use xlink:href="#DejaVuSans-63" transform="translate(1325.341797 0)"/>
      <use xlink:href="#DejaVuSans-74" transform="translate(1380.322266 0)"/>
      <use xlink:href="#DejaVuSans-69" transform="translate(1419.53125 0)"/>
      <use xlink:href="#DejaVuSans-76" transform="translate(1447.314453 0)"/>
      <use xlink:href="#DejaVuSans-69" transform="translate(1506.494141 0)"/>
      <use xlink:href="#DejaVuSans-74" transform="translate(1534.277344 0)"/>
      <use xlink:href="#DejaVuSans-69" transform="translate(1573.486328 0)"/>
      <use xlink:href="#DejaVuSans-65" transform="translate(1601.269531 0)"/>
      <use xlink:href="#DejaVuSans-73" transform="translate(1662.792969 0)"/>
     </g>
    </g>
    <g id="patch_12">
     <path d="M 90.735 398.374675 
L 106.735 398.374675 
L 106.735 392.774675 
L 90.735 392.774675 
z
" style="fill: #eda100; stroke: #ffffff; stroke-width: 2; stroke-linejoin: miter"/>
    </g>
    <g id="text_12">
     <!-- A02 - 02 - Forestry and logging -->
     <g style="fill: #0b0b0b" transform="translate(113.135 398.374675) scale(0.08 -0.08)">
      <defs>
       <path id="DejaVuSans-41" d="M 2188 4044 
L 1331 1722 
L 3047 1722 
L 2188 4044 
z
M 1831 4666 
L 2547 4666 
L 4325 0 
L 3669 0 
L 3244 1197 
L 1141 1197 
L 716 0 
L 50 0 
L 1831 4666 
z
" transform="scale(0.015625)"/>
       <path id="DejaVuSans-46" d="M 628 4666 
L 3309 4666 
L 3309 4134 
L 1259 4134 
L 1259 2759 
L 3109 2759 
L 3109 2228 
L 1259 2228 
L 1259 0 
L 628 0 
L 628 4666 
z
" transform="scale(0.015625)"/>
      </defs>
      <use xlink:href="#DejaVuSans-41"/>
      <use xlink:href="#DejaVuSans-30" transform="translate(68.408203 0)"/>
      <use xlink:href="#DejaVuSans-32" transform="translate(132.03125 0)"/>
      <use xlink:href="#DejaVuSans-20" transform="translate(195.654297 0)"/>
      <use xlink:href="#DejaVuSans-2d" transform="translate(227.441406 0)"/>
      <use xlink:href="#DejaVuSans-20" transform="translate(263.525391 0)"/>
      <use xlink:href="#DejaVuSans-30" transform="translate(295.3125 0)"/>
      <use xlink:href="#DejaVuSans-32" transform="translate(358.935547 0)"/>
      <use xlink:href="#DejaVuSans-20" transform="translate(422.558594 0)"/>
      <use xlink:href="#DejaVuSans-2d" transform="translate(454.345703 0)"/>
      <use xlink:href="#DejaVuSans-20" transform="translate(490.429688 0)"/>
      <use xlink:href="#DejaVuSans-46" transform="translate(522.216797 0)"/>
      <use xlink:href="#DejaVuSans-6f" transform="translate(576.111328 0)"/>
      <use xlink:href="#DejaVuSans-72" transform="translate(637.292969 0)"/>
      <use xlink:href="#DejaVuSans-65" transform="translate(676.15625 0)"/>
      <use xlink:href="#DejaVuSans-73" transform="translate(737.679688 0)"/>
      <use xlink:href="#DejaVuSans-74" transform="translate(789.779297 0)"/>
      <use xlink:href="#DejaVuSans-72" transform="translate(828.988281 0)"/>
      <use xlink:href="#DejaVuSans-79" transform="translate(870.101562 0)"/>
      <use xlink:href="#DejaVuSans-20" transform="translate(929.28125 0)"/>
      <use xlink:href="#DejaVuSans-61" transform="translate(961.068359 0)"/>
      <use xlink:href="#DejaVuSans-6e" transform="translate(1022.347656 0)"/>
      <use xlink:href="#DejaVuSans-64" transform="translate(1085.726562 0)"/>
      <use xlink:href="#DejaVuSans-20" transform="translate(1149.203125 0)"/>
      <use xlink:href="#DejaVuSans-6c" transform="translate(1180.990234 0)"/>
      <use xlink:href="#DejaVuSans-6f" transform="translate(1208.773438 0)"/>
      <use xlink:href="#DejaVuSans-67" transform="translate(1269.955078 0)"/>
      <use xlink:href="#DejaVuSans-67" transform="translate(1333.431641 0)"/>
      <use xlink:href="#DejaVuSans-69" transform="translate(1396.908203 0)"/>
      <use xlink:href="#DejaVuSans-6e" transform="translate(1424.691406 0)"/>
      <use xlink:href="#DejaVuSans-67" transform="translate(1488.070312 0)"/>
     </g>
    </g>
    <g id="patch_13">
     <path d="M 90.735 410.117175 
L 106.735 410.117175 
L 106.735 404.517175 
L 90.735 404.517175 
z
" style="fill: #008300; stroke: #ffffff; stroke-width: 2; stroke-linejoin: miter"/>
    </g>
    <g id="text_13">
     <!-- P84 - 84 - Public administration… -->
     <g style="fill: #0b0b0b" transform="translate(113.135 410.117175) scale(0.08 -0.08)">
      <use xlink:href="#DejaVuSans-50"/>
      <use xlink:href="#DejaVuSans-38" transform="translate(60.302734 0)"/>
      <use xlink:href="#DejaVuSans-34" transform="translate(123.925781 0)"/>
      <use xlink:href="#DejaVuSans-20" transform="translate(187.548828 0)"/>
      <use xlink:href="#DejaVuSans-2d" transform="translate(219.335938 0)"/>
      <use xlink:href="#DejaVuSans-20" transform="translate(255.419922 0)"/>
      <use xlink:href="#DejaVuSans-38" transform="translate(287.207031 0)"/>
      <use xlink:href="#DejaVuSans-34" transform="translate(350.830078 0)"/>
      <use xlink:href="#DejaVuSans-20" transform="translate(414.453125 0)"/>
      <use xlink:href="#DejaVuSans-2d" transform="translate(446.240234 0)"/>
      <use xlink:href="#DejaVuSans-20" transform="translate(482.324219 0)"/>
      <use xlink:href="#DejaVuSans-50" transform="translate(514.111328 0)"/>
      <use xlink:href="#DejaVuSans-75" transform="translate(572.664062 0)"/>
      <use xlink:href="#DejaVuSans-62" transform="translate(636.042969 0)"/>
      <use xlink:href="#DejaVuSans-6c" transform="translate(699.519531 0)"/>
      <use xlink:href="#DejaVuSans-69" transform="translate(727.302734 0)"/>
      <use xlink:href="#DejaVuSans-63" transform="translate(755.085938 0)"/>
      <use xlink:href="#DejaVuSans-20" transform="translate(810.066406 0)"/>
      <use xlink:href="#DejaVuSans-61" transform="translate(841.853516 0)"/>
      <use xlink:href="#DejaVuSans-64" transform="translate(903.132812 0)"/>
      <use xlink:href="#DejaVuSans-6d" transform="translate(966.609375 0)"/>
      <use xlink:href="#DejaVuSans-69" transform="translate(1064.021484 0)"/>
      <use xlink:href="#DejaVuSans-6e" transform="translate(1091.804688 0)"/>
      <use xlink:href="#DejaVuSans-69" transform="translate(1155.183594 0)"/>
      <use xlink:href="#DejaVuSans-73" transform="translate(1182.966797 0)"/>
      <use xlink:href="#DejaVuSans-74" transform="translate(1235.066406 0)"/>
      <use xlink:href="#DejaVuSans-72" transform="translate(1274.275391 0)"/>
      <use xlink:href="#DejaVuSans-61" transform="translate(1315.388672 0)"/>
      <use xlink:href="#DejaVuSans-74" transform="translate(1376.667969 0)"/>
      <use xlink:href="#DejaVuSans-69" transform="translate(1415.876953 0)"/>
      <use xlink:href="#DejaVuSans-6f" transform="translate(1443.660156 0)"/>
      <use xlink:href="#DejaVuSans-6e" transform="translate(1504.841797 0)"/>
      <use xlink:href="#DejaVuSans-2026" transform="translate(1568.220703 0)"/>
     </g>
    </g>
    <g id="patch_14">
     <path d="M 90.735 421.859675 
L 106.735 421.859675 
L 106.735 416.259675 
L 90.735 416.259675 
z
" style="fill: #4a3aa7; stroke: #ffffff; stroke-width: 2; stroke-linejoin: miter"/>
    </g>
    <g id="text_14">
     <!-- C18 - 18 - Printing and reproduct… -->
     <g style="fill: #0b0b0b" transform="translate(113.135 421.859675) scale(0.08 -0.08)">
      <defs>
       <path id="DejaVuSans-43" d="M 4122 4306 
L 4122 3641 
Q 3803 3938 3442 4084 
Q 3081 4231 2675 4231 
Q 1875 4231 1450 3742 
Q 1025 3253 1025 2328 
Q 1025 1406 1450 917 
Q 1875 428 2675 428 
Q 3081 428 3442 575 
Q 3803 722 4122 1019 
L 4122 359 
Q 3791 134 3420 21 
Q 3050 -91 2638 -91 
Q 1578 -91 968 557 
Q 359 1206 359 2328 
Q 359 3453 968 4101 
Q 1578 4750 2638 4750 
Q 3056 4750 3426 4639 
Q 3797 4528 4122 4306 
z
" transform="scale(0.015625)"/>
       <path id="DejaVuSans-31" d="M 794 531 
L 1825 531 
L 1825 4091 
L 703 3866 
L 703 4441 
L 1819 4666 
L 2450 4666 
L 2450 531 
L 3481 531 
L 3481 0 
L 794 0 
L 794 531 
z
" transform="scale(0.015625)"/>
       <path id="DejaVuSans-70" d="M 1159 525 
L 1159 -1331 
L 581 -1331 
L 581 3500 
L 1159 3500 
L 1159 2969 
Q 1341 3281 1617 3432 
Q 1894 3584 2278 3584 
Q 2916 3584 3314 3078 
Q 3713 2572 3713 1747 
Q 3713 922 3314 415 
Q 2916 -91 2278 -91 
Q 1894 -91 1617 61 
Q 1341 213 1159 525 
z
M 3116 1747 
Q 3116 2381 2855 2742 
Q 2594 3103 2138 3103 
Q 1681 3103 1420 2742 
Q 1159 2381 1159 1747 
Q 1159 1113 1420 752 
Q 1681 391 2138 391 
Q 2594 391 2855 752 
Q 3116 1113 3116 1747 
z
" transform="scale(0.015625)"/>
      </defs>
      <use xlink:href="#DejaVuSans-43"/>
      <use xlink:href="#DejaVuSans-31" transform="translate(69.824219 0)"/>
      <use xlink:href="#DejaVuSans-38" transform="translate(133.447266 0)"/>
      <use xlink:href="#DejaVuSans-20" transform="translate(197.070312 0)"/>
      <use xlink:href="#DejaVuSans-2d" transform="translate(228.857422 0)"/>
      <use xlink:href="#DejaVuSans-20" transform="translate(264.941406 0)"/>
      <use xlink:href="#DejaVuSans-31" transform="translate(296.728516 0)"/>
      <use xlink:href="#DejaVuSans-38" transform="translate(360.351562 0)"/>
      <use xlink:href="#DejaVuSans-20" transform="translate(423.974609 0)"/>
      <use xlink:href="#DejaVuSans-2d" transform="translate(455.761719 0)"/>
      <use xlink:href="#DejaVuSans-20" transform="translate(491.845703 0)"/>
      <use xlink:href="#DejaVuSans-50" transform="translate(523.632812 0)"/>
      <use xlink:href="#DejaVuSans-72" transform="translate(582.185547 0)"/>
      <use xlink:href="#DejaVuSans-69" transform="translate(623.298828 0)"/>
      <use xlink:href="#DejaVuSans-6e" transform="translate(651.082031 0)"/>
      <use xlink:href="#DejaVuSans-74" transform="translate(714.460938 0)"/>
      <use xlink:href="#DejaVuSans-69" transform="translate(753.669922 0)"/>
      <use xlink:href="#DejaVuSans-6e" transform="translate(781.453125 0)"/>
      <use xlink:href="#DejaVuSans-67" transform="translate(844.832031 0)"/>
      <use xlink:href="#DejaVuSans-20" transform="translate(908.308594 0)"/>
      <use xlink:href="#DejaVuSans-61" transform="translate(940.095703 0)"/>
      <use xlink:href="#DejaVuSans-6e" transform="translate(1001.375 0)"/>
      <use xlink:href="#DejaVuSans-64" transform="translate(1064.753906 0)"/>
      <use xlink:href="#DejaVuSans-20" transform="translate(1128.230469 0)"/>
      <use xlink:href="#DejaVuSans-72" transform="translate(1160.017578 0)"/>
      <use xlink:href="#DejaVuSans-65" transform="translate(1198.880859 0)"/>
      <use xlink:href="#DejaVuSans-70" transform="translate(1260.404297 0)"/>
      <use xlink:href="#DejaVuSans-72" transform="translate(1323.880859 0)"/>
      <use xlink:href="#DejaVuSans-6f" transform="translate(1362.744141 0)"/>
      <use xlink:href="#DejaVuSans-64" transform="translate(1423.925781 0)"/>
      <use xlink:href="#DejaVuSans-75" transform="translate(1487.402344 0)"/>
      <use xlink:href="#DejaVuSans-63" transform="translate(1550.78125 0)"/>
      <use xlink:href="#DejaVuSans-74" transform="translate(1605.761719 0)"/>
      <use xlink:href="#DejaVuSans-2026" transform="translate(1644.970703 0)"/>
     </g>
    </g>
    <g id="patch_15">
     <path d="M 90.735 433.602175 
L 106.735 433.602175 
L 106.735 428.002175 
L 90.735 428.002175 
z
" style="fill: #e34948; stroke: #ffffff; stroke-width: 2; stroke-linejoin: miter"/>
    </g>
    <g id="text_15">
     <!-- N73 - 73 - Activities of advertis… -->
     <g style="fill: #0b0b0b" transform="translate(113.135 433.602175) scale(0.08 -0.08)">
      <defs>
       <path id="DejaVuSans-4e" d="M 628 4666 
L 1478 4666 
L 3547 763 
L 3547 4666 
L 4159 4666 
L 4159 0 
L 3309 0 
L 1241 3903 
L 1241 0 
L 628 0 
L 628 4666 
z
" transform="scale(0.015625)"/>
       <path id="DejaVuSans-66" d="M 2375 4863 
L 2375 4384 
L 1825 4384 
Q 1516 4384 1395 4259 
Q 1275 4134 1275 3809 
L 1275 3500 
L 2222 3500 
L 2222 3053 
L 1275 3053 
L 1275 0 
L 697 0 
L 697 3053 
L 147 3053 
L 147 3500 
L 697 3500 
L 697 3744 
Q 697 4328 969 4595 
Q 1241 4863 1831 4863 
L 2375 4863 
z
" transform="scale(0.015625)"/>
      </defs>
      <use xlink:href="#DejaVuSans-4e"/>
      <use xlink:href="#DejaVuSans-37" transform="translate(74.804688 0)"/>
      <use xlink:href="#DejaVuSans-33" transform="translate(138.427734 0)"/>
      <use xlink:href="#DejaVuSans-20" transform="translate(202.050781 0)"/>
      <use xlink:href="#DejaVuSans-2d" transform="translate(233.837891 0)"/>
      <use xlink:href="#DejaVuSans-20" transform="translate(269.921875 0)"/>
      <use xlink:href="#DejaVuSans-37" transform="translate(301.708984 0)"/>
      <use xlink:href="#DejaVuSans-33" transform="translate(365.332031 0)"/>
      <use xlink:href="#DejaVuSans-20" transform="translate(428.955078 0)"/>
      <use xlink:href="#DejaVuSans-2d" transform="translate(460.742188 0)"/>
      <use xlink:href="#DejaVuSans-20" transform="translate(496.826172 0)"/>
      <use xlink:href="#DejaVuSans-41" transform="translate(528.613281 0)"/>
      <use xlink:href="#DejaVuSans-63" transform="translate(595.271484 0)"/>
      <use xlink:href="#DejaVuSans-74" transform="translate(650.251953 0)"/>
      <use xlink:href="#DejaVuSans-69" transform="translate(689.460938 0)"/>
      <use xlink:href="#DejaVuSans-76" transform="translate(717.244141 0)"/>
      <use xlink:href="#DejaVuSans-69" transform="translate(776.423828 0)"/>
      <use xlink:href="#DejaVuSans-74" transform="translate(804.207031 0)"/>
      <use xlink:href="#DejaVuSans-69" transform="translate(843.416016 0)"/>
      <use xlink:href="#DejaVuSans-65" transform="translate(871.199219 0)"/>
      <use xlink:href="#DejaVuSans-73" transform="translate(932.722656 0)"/>
      <use xlink:href="#DejaVuSans-20" transform="translate(984.822266 0)"/>
      <use xlink:href="#DejaVuSans-6f" transform="translate(1016.609375 0)"/>
      <use xlink:href="#DejaVuSans-66" transform="translate(1077.791016 0)"/>
      <use xlink:href="#DejaVuSans-20" transform="translate(1112.996094 0)"/>
      <use xlink:href="#DejaVuSans-61" transform="translate(1144.783203 0)"/>
      <use xlink:href="#DejaVuSans-64" transform="translate(1206.0625 0)"/>
      <use xlink:href="#DejaVuSans-76" transform="translate(1269.539062 0)"/>
      <use xlink:href="#DejaVuSans-65" transform="translate(1328.71875 0)"/>
      <use xlink:href="#DejaVuSans-72" transform="translate(1390.242188 0)"/>
      <use xlink:href="#DejaVuSans-74" transform="translate(1431.355469 0)"/>
      <use xlink:href="#DejaVuSans-69" transform="translate(1470.564453 0)"/>
      <use xlink:href="#DejaVuSans-73" transform="translate(1498.347656 0)"/>
      <use xlink:href="#DejaVuSans-2026" transform="translate(1550.447266 0)"/>
     </g>
    </g>
    <g id="patch_16">
     <path d="M 90.735 445.344675 
L 106.735 445.344675 
L 106.735 439.744675 
L 90.735 439.744675 
z
" style="fill: #e87ba4; stroke: #ffffff; stroke-width: 2; stroke-linejoin: miter"/>
    </g>
    <g id="text_16">
     <!-- V99 - 99 - Activities of extrater… -->
     <g style="fill: #0b0b0b" transform="translate(113.135 445.344675) scale(0.08 -0.08)">
      <defs>
       <path id="DejaVuSans-56" d="M 1831 0 
L 50 4666 
L 709 4666 
L 2188 738 
L 3669 4666 
L 4325 4666 
L 2547 0 
L 1831 0 
z
" transform="scale(0.015625)"/>
       <path id="DejaVuSans-78" d="M 3513 3500 
L 2247 1797 
L 3578 0 
L 2900 0 
L 1881 1375 
L 863 0 
L 184 0 
L 1544 1831 
L 300 3500 
L 978 3500 
L 1906 2253 
L 2834 3500 
L 3513 3500 
z
" transform="scale(0.015625)"/>
      </defs>
      <use xlink:href="#DejaVuSans-56"/>
      <use xlink:href="#DejaVuSans-39" transform="translate(68.408203 0)"/>
      <use xlink:href="#DejaVuSans-39" transform="translate(132.03125 0)"/>
      <use xlink:href="#DejaVuSans-20" transform="translate(195.654297 0)"/>
      <use xlink:href="#DejaVuSans-2d" transform="translate(227.441406 0)"/>
      <use xlink:href="#DejaVuSans-20" transform="translate(263.525391 0)"/>
      <use xlink:href="#DejaVuSans-39" transform="translate(295.3125 0)"/>
      <use xlink:href="#DejaVuSans-39" transform="translate(358.935547 0)"/>
      <use xlink:href="#DejaVuSans-20" transform="translate(422.558594 0)"/>
      <use xlink:href="#DejaVuSans-2d" transform="translate(454.345703 0)"/>
      <use xlink:href="#DejaVuSans-20" transform="translate(490.429688 0)"/>
      <use xlink:href="#DejaVuSans-41" transform="translate(522.216797 0)"/>
      <use xlink:href="#DejaVuSans-63" transform="translate(588.875 0)"/>
      <use xlink:href="#DejaVuSans-74" transform="translate(643.855469 0)"/>
      <use xlink:href="#DejaVuSans-69" transform="translate(683.064453 0)"/>
      <use xlink:href="#DejaVuSans-76" transform="translate(710.847656 0)"/>
      <use xlink:href="#DejaVuSans-69" transform="translate(770.027344 0)"/>
      <use xlink:href="#DejaVuSans-74" transform="translate(797.810547 0)"/>
      <use xlink:href="#DejaVuSans-69" transform="translate(837.019531 0)"/>
      <use xlink:href="#DejaVuSans-65" transform="translate(864.802734 0)"/>
      <use xlink:href="#DejaVuSans-73" transform="translate(926.326172 0)"/>
      <use xlink:href="#DejaVuSans-20" transform="translate(978.425781 0)"/>
      <use xlink:href="#DejaVuSans-6f" transform="translate(1010.212891 0)"/>
      <use xlink:href="#DejaVuSans-66" transform="translate(1071.394531 0)"/>
      <use xlink:href="#DejaVuSans-20" transform="translate(1106.599609 0)"/>
      <use xlink:href="#DejaVuSans-65" transform="translate(1138.386719 0)"/>
      <use xlink:href="#DejaVuSans-78" transform="translate(1198.160156 0)"/>
      <use xlink:href="#DejaVuSans-74" transform="translate(1257.339844 0)"/>
      <use xlink:href="#DejaVuSans-72" transform="translate(1296.548828 0)"/>
      <use xlink:href="#DejaVuSans-61" transform="translate(1337.662109 0)"/>
      <use xlink:href="#DejaVuSans-74" transform="translate(1398.941406 0)"/>
      <use xlink:href="#DejaVuSans-65" transform="translate(1438.150391 0)"/>
      <use xlink:href="#DejaVuSans-72" transform="translate(1499.673828 0)"/>
      <use xlink:href="#DejaVuSans-2026" transform="translate(1540.787109 0)"/>
     </g>
    </g>
    <g id="patch_17">
     <path d="M 90.735 457.087175 
L 106.735 457.087175 
L 106.735 451.487175 
L 90.735 451.487175 
z
" style="fill: #bdbbb2; stroke: #ffffff; stroke-width: 2; stroke-linejoin: miter"/>
    </g>
    <g id="text_17">
     <!-- Other -->
     <g style="fill: #0b0b0b" transform="translate(113.135 457.087175) scale(0.08 -0.08)">
      <defs>
       <path id="DejaVuSans-4f" d="M 2522 4238 
Q 1834 4238 1429 3725 
Q 1025 3213 1025 2328 
Q 1025 1447 1429 934 
Q 1834 422 2522 422 
Q 3209 422 3611 934 
Q 4013 1447 4013 2328 
Q 4013 3213 3611 3725 
Q 3209 4238 2522 4238 
z
M 2522 4750 
Q 3503 4750 4090 4092 
Q 4678 3434 4678 2328 
Q 4678 1225 4090 567 
Q 3503 -91 2522 -91 
Q 1538 -91 948 565 
Q 359 1222 359 2328 
Q 359 3434 948 4092 
Q 1538 4750 2522 4750 
z
" transform="scale(0.015625)"/>
      </defs>
      <use xlink:href="#DejaVuSans-4f"/>
      <use xlink:href="#DejaVuSans-74" transform="translate(78.710938 0)"/>
      <use xlink:href="#DejaVuSans-68" transform="translate(117.919922 0)"/>
      <use xlink:href="#DejaVuSans-65" transform="translate(181.298828 0)"/>
      <use xlink:href="#DejaVuSans-72" transform="translate(242.822266 0)"/>
     </g>
    </g>
   </g>
  </g>
 </g>
</svg>
