<?xml version="1.0" encoding="utf-8" standalone="no"?>
<!DOCTYPE svg PUBLIC "-//W3C//DTD SVG 1.1//EN"
  "http://www.w3.org/Graphics/SVG/1.1/DTD/svg11.dtd">
<svg xmlns:xlink="http://www.w3.org/1999/xlink" width="648pt" height="547.2pt" viewBox="0 0 648 547.2" xmlns="http://www.w3.org/2000/svg" version="1.1">
 <metadata>
  <rdf:RDF xmlns:dc="http://purl.org/dc/elements/1.1/" xmlns:cc="http://creativecommons.org/ns#" xmlns:rdf="http://www.w3.org/1999/02/22-rdf-syntax-ns#">
   <cc:Work>
    <dc:type rdf:resource="http://purl.org/dc/dcmitype/StillImage"/>
    <dc:date>2026-07-05T16:58:39.751570</dc:date>
    <dc:format>image/svg+xml</dc:format>
    <dc:creator>
     <cc:Agent>
      <dc:title>Matplotlib v3.10.9, https://matplotlib.org/</dc:title>
     </cc:Agent>
    </dc:creator>
   </cc:Work>
  </rdf:RDF>
 </metadata>
 <defs>
  <style type="text/css">*{stroke-linejoin: round; stroke-linecap: butt}</style>
 </defs>
 <g id="figure_1">
  <g id="axes_1">
   <g id="matplotlib.axis_1">
    <g id="xtick_1">
     <g id="line2d_1">
      <path d="M 199.69 505.24 
L 199.69 26.88 
" clip-path="url(#p203f2792e3)" style="fill: none; stroke: #e1e0d9; stroke-width: 0.8; stroke-linecap: square"/>
     </g>
     <g id="line2d_2">
      <defs>
       <path id="m59da378181" d="M 0 0 
L 0 3.5 
" style="stroke: #898781; stroke-width: 0.8"/>
      </defs>
      <g>
       <use xlink:href="#m59da378181" x="199.69" y="505.24" style="fill: #898781; stroke: #898781; stroke-width: 0.8"/>
      </g>
     </g>
     <g id="text_1">
      <!-- 0 -->
      <g style="fill: #898781" transform="translate(196.50875 519.838437) scale(0.1 -0.1)">
       <defs>
        <path id="DejaVuSans-30" d="M 2034 4250 
Q 1547 4250 1301 3770 
Q 1056 3291 1056 2328 
Q 1056 1369 1301 889 
Q 1547 409 2034 409 
Q 2525 409 2770 889 
Q 3016 1369 3016 2328 
Q 3016 3291 2770 3770 
Q 2525 4250 2034 4250 
z
M 2034 4750 
Q 2819 4750 3233 4129 
Q 3647 3509 3647 2328 
Q 3647 1150 3233 529 
Q 2819 -91 2034 -91 
Q 1250 -91 836 529 
Q 422 1150 422 2328 
Q 422 3509 836 4129 
Q 1250 4750 2034 4750 
z
" transform="scale(0.015625)"/>
       </defs>
       <use xlink:href="#DejaVuSans-30"/>
      </g>
     </g>
    </g>
    <g id="xtick_2">
     <g id="line2d_3">
      <path d="M 280.711271 505.24 
L 280.711271 26.88 
" clip-path="url(#p203f2792e3)" style="fill: none; stroke: #e1e0d9; stroke-width: 0.8; stroke-linecap: square"/>
     </g>
     <g id="line2d_4">
      <g>
       <use xlink:href="#m59da378181" x="280.711271" y="505.24" style="fill: #898781; stroke: #898781; stroke-width: 0.8"/>
      </g>
     </g>
     <g id="text_2">
      <!-- 10000 -->
      <g style="fill: #898781" transform="translate(264.805021 519.838437) scale(0.1 -0.1)">
       <defs>
        <path id="DejaVuSans-31" d="M 794 531 
L 1825 531 
L 1825 4091 
L 703 3866 
L 703 4441 
L 1819 4666 
L 2450 4666 
L 2450 531 
L 3481 531 
L 3481 0 
L 794 0 
L 794 531 
z
" transform="scale(0.015625)"/>
       </defs>
       <use xlink:href="#DejaVuSans-31"/>
       <use xlink:href="#DejaVuSans-30" transform="translate(63.623047 0)"/>
       <use xlink:href="#DejaVuSans-30" transform="translate(127.246094 0)"/>
       <use xlink:href="#DejaVuSans-30" transform="translate(190.869141 0)"/>
       <use xlink:href="#DejaVuSans-30" transform="translate(254.492188 0)"/>
      </g>
     </g>
    </g>
    <g id="xtick_3">
     <g id="line2d_5">
      <path d="M 361.732541 505.24 
L 361.732541 26.88 
" clip-path="url(#p203f2792e3)" style="fill: none; stroke: #e1e0d9; stroke-width: 0.8; stroke-linecap: square"/>
     </g>
     <g id="line2d_6">
      <g>
       <use xlink:href="#m59da378181" x="361.732541" y="505.24" style="fill: #898781; stroke: #898781; stroke-width: 0.8"/>
      </g>
     </g>
     <g id="text_3">
      <!-- 20000 -->
      <g style="fill: #898781" transform="translate(345.826291 519.838437) scale(0.1 -0.1)">
       <defs>
        <path id="DejaVuSans-32" d="M 1228 531 
L 3431 531 
L 3431 0 
L 469 0 
L 469 531 
Q 828 903 1448 1529 
Q 2069 2156 2228 2338 
Q 2531 2678 2651 2914 
Q 2772 3150 2772 3378 
Q 2772 3750 2511 3984 
Q 2250 4219 1831 4219 
Q 1534 4219 1204 4116 
Q 875 4013 500 3803 
L 500 4441 
Q 881 4594 1212 4672 
Q 1544 4750 1819 4750 
Q 2544 4750 2975 4387 
Q 3406 4025 3406 3419 
Q 3406 3131 3298 2873 
Q 3191 2616 2906 2266 
Q 2828 2175 2409 1742 
Q 1991 1309 1228 531 
z
" transform="scale(0.015625)"/>
       </defs>
       <use xlink:href="#DejaVuSans-32"/>
       <use xlink:href="#DejaVuSans-30" transform="translate(63.623047 0)"/>
       <use xlink:href="#DejaVuSans-30" transform="translate(127.246094 0)"/>
       <use xlink:href="#DejaVuSans-30" transform="translate(190.869141 0)"/>
       <use xlink:href="#DejaVuSans-30" transform="translate(254.492188 0)"/>
      </g>
     </g>
    </g>
    <g id="xtick_4">
     <g id="line2d_7">
      <path d="M 442.753812 505.24 
L 442.753812 26.88 
" clip-path="url(#p203f2792e3)" style="fill: none; stroke: #e1e0d9; stroke-width: 0.8; stroke-linecap: square"/>
     </g>
     <g id="line2d_8">
      <g>
       <use xlink:href="#m59da378181" x="442.753812" y="505.24" style="fill: #898781; stroke: #898781; stroke-width: 0.8"/>
      </g>
     </g>
     <g id="text_4">
      <!-- 30000 -->
      <g style="fill: #898781" transform="translate(426.847562 519.838437) scale(0.1 -0.1)">
       <defs>
        <path id="DejaVuSans-33" d="M 2597 2516 
Q 3050 2419 3304 2112 
Q 3559 1806 3559 1356 
Q 3559 666 3084 287 
Q 2609 -91 1734 -91 
Q 1441 -91 1130 -33 
Q 819 25 488 141 
L 488 750 
Q 750 597 1062 519 
Q 1375 441 1716 441 
Q 2309 441 2620 675 
Q 2931 909 2931 1356 
Q 2931 1769 2642 2001 
Q 2353 2234 1838 2234 
L 1294 2234 
L 1294 2753 
L 1863 2753 
Q 2328 2753 2575 2939 
Q 2822 3125 2822 3475 
Q 2822 3834 2567 4026 
Q 2313 4219 1838 4219 
Q 1578 4219 1281 4162 
Q 984 4106 628 3988 
L 628 4550 
Q 988 4650 1302 4700 
Q 1616 4750 1894 4750 
Q 2613 4750 3031 4423 
Q 3450 4097 3450 3541 
Q 3450 3153 3228 2886 
Q 3006 2619 2597 2516 
z
" transform="scale(0.015625)"/>
       </defs>
       <use xlink:href="#DejaVuSans-33"/>
       <use xlink:href="#DejaVuSans-30" transform="translate(63.623047 0)"/>
       <use xlink:href="#DejaVuSans-30" transform="translate(127.246094 0)"/>
       <use xlink:href="#DejaVuSans-30" transform="translate(190.869141 0)"/>
       <use xlink:href="#DejaVuSans-30" transform="translate(254.492188 0)"/>
      </g>
     </g>
    </g>
    <g id="xtick_5">
     <g id="line2d_9">
      <path d="M 523.775082 505.24 
L 523.775082 26.88 
" clip-path="url(#p203f2792e3)" style="fill: none; stroke: #e1e0d9; stroke-width: 0.8; stroke-linecap: square"/>
     </g>
     <g id="line2d_10">
      <g>
       <use xlink:href="#m59da378181" x="523.775082" y="505.24" style="fill: #898781; stroke: #898781; stroke-width: 0.8"/>
      </g>
     </g>
     <g id="text_5">
      <!-- 40000 -->
      <g style="fill: #898781" transform="translate(507.868832 519.838437) scale(0.1 -0.1)">
       <defs>
        <path id="DejaVuSans-34" d="M 2419 4116 
L 825 1625 
L 2419 1625 
L 2419 4116 
z
M 2253 4666 
L 3047 4666 
L 3047 1625 
L 3713 1625 
L 3713 1100 
L 3047 1100 
L 3047 0 
L 2419 0 
L 2419 1100 
L 313 1100 
L 313 1709 
L 2253 4666 
z
" transform="scale(0.015625)"/>
       </defs>
       <use xlink:href="#DejaVuSans-34"/>
       <use xlink:href="#DejaVuSans-30" transform="translate(63.623047 0)"/>
       <use xlink:href="#DejaVuSans-30" transform="translate(127.246094 0)"/>
       <use xlink:href="#DejaVuSans-30" transform="translate(190.869141 0)"/>
       <use xlink:href="#DejaVuSans-30" transform="translate(254.492188 0)"/>
      </g>
     </g>
    </g>
    <g id="xtick_6">
     <g id="line2d_11">
      <path d="M 604.796353 505.24 
L 604.796353 26.88 
" clip-path="url(#p203f2792e3)" style="fill: none; stroke: #e1e0d9; stroke-width: 0.8; stroke-linecap: square"/>
     </g>
     <g id="line2d_12">
      <g>
       <use xlink:href="#m59da378181" x="604.796353" y="505.24" style="fill: #898781; stroke: #898781; stroke-width: 0.8"/>
      </g>
     </g>
     <g id="text_6">
      <!-- 50000 -->
      <g style="fill: #898781" transform="translate(588.890103 519.838437) scale(0.1 -0.1)">
       <defs>
        <path id="DejaVuSans-35" d="M 691 4666 
L 3169 4666 
L 3169 4134 
L 1269 4134 
L 1269 2991 
Q 1406 3038 1543 3061 
Q 1681 3084 1819 3084 
Q 2600 3084 3056 2656 
Q 3513 2228 3513 1497 
Q 3513 744 3044 326 
Q 2575 -91 1722 -91 
Q 1428 -91 1123 -41 
Q 819 9 494 109 
L 494 744 
Q 775 591 1075 516 
Q 1375 441 1709 441 
Q 2250 441 2565 725 
Q 2881 1009 2881 1497 
Q 2881 1984 2565 2268 
Q 2250 2553 1709 2553 
Q 1456 2553 1204 2497 
Q 953 2441 691 2322 
L 691 4666 
z
" transform="scale(0.015625)"/>
       </defs>
       <use xlink:href="#DejaVuSans-35"/>
       <use xlink:href="#DejaVuSans-30" transform="translate(63.623047 0)"/>
       <use xlink:href="#DejaVuSans-30" transform="translate(127.246094 0)"/>
       <use xlink:href="#DejaVuSans-30" transform="translate(190.869141 0)"/>
       <use xlink:href="#DejaVuSans-30" transform="translate(254.492188 0)"/>
      </g>
     </g>
    </g>
    <g id="text_7">
     <!-- Number of projects -->
     <g style="fill: #898781" transform="translate(370.405156 533.516562) scale(0.1 -0.1)">
      <defs>
       <path id="DejaVuSans-4e" d="M 628 4666 
L 1478 4666 
L 3547 763 
L 3547 4666 
L 4159 4666 
L 4159 0 
L 3309 0 
L 1241 3903 
L 1241 0 
L 628 0 
L 628 4666 
z
" transform="scale(0.015625)"/>
       <path id="DejaVuSans-75" d="M 544 1381 
L 544 3500 
L 1119 3500 
L 1119 1403 
Q 1119 906 1312 657 
Q 1506 409 1894 409 
Q 2359 409 2629 706 
Q 2900 1003 2900 1516 
L 2900 3500 
L 3475 3500 
L 3475 0 
L 2900 0 
L 2900 538 
Q 2691 219 2414 64 
Q 2138 -91 1772 -91 
Q 1169 -91 856 284 
Q 544 659 544 1381 
z
M 1991 3584 
L 1991 3584 
z
" transform="scale(0.015625)"/>
       <path id="DejaVuSans-6d" d="M 3328 2828 
Q 3544 3216 3844 3400 
Q 4144 3584 4550 3584 
Q 5097 3584 5394 3201 
Q 5691 2819 5691 2113 
L 5691 0 
L 5113 0 
L 5113 2094 
Q 5113 2597 4934 2840 
Q 4756 3084 4391 3084 
Q 3944 3084 3684 2787 
Q 3425 2491 3425 1978 
L 3425 0 
L 2847 0 
L 2847 2094 
Q 2847 2600 2669 2842 
Q 2491 3084 2119 3084 
Q 1678 3084 1418 2786 
Q 1159 2488 1159 1978 
L 1159 0 
L 581 0 
L 581 3500 
L 1159 3500 
L 1159 2956 
Q 1356 3278 1631 3431 
Q 1906 3584 2284 3584 
Q 2666 3584 2933 3390 
Q 3200 3197 3328 2828 
z
" transform="scale(0.015625)"/>
       <path id="DejaVuSans-62" d="M 3116 1747 
Q 3116 2381 2855 2742 
Q 2594 3103 2138 3103 
Q 1681 3103 1420 2742 
Q 1159 2381 1159 1747 
Q 1159 1113 1420 752 
Q 1681 391 2138 391 
Q 2594 391 2855 752 
Q 3116 1113 3116 1747 
z
M 1159 2969 
Q 1341 3281 1617 3432 
Q 1894 3584 2278 3584 
Q 2916 3584 3314 3078 
Q 3713 2572 3713 1747 
Q 3713 922 3314 415 
Q 2916 -91 2278 -91 
Q 1894 -91 1617 61 
Q 1341 213 1159 525 
L 1159 0 
L 581 0 
L 581 4863 
L 1159 4863 
L 1159 2969 
z
" transform="scale(0.015625)"/>
       <path id="DejaVuSans-65" d="M 3597 1894 
L 3597 1613 
L 953 1613 
Q 991 1019 1311 708 
Q 1631 397 2203 397 
Q 2534 397 2845 478 
Q 3156 559 3463 722 
L 3463 178 
Q 3153 47 2828 -22 
Q 2503 -91 2169 -91 
Q 1331 -91 842 396 
Q 353 884 353 1716 
Q 353 2575 817 3079 
Q 1281 3584 2069 3584 
Q 2775 3584 3186 3129 
Q 3597 2675 3597 1894 
z
M 3022 2063 
Q 3016 2534 2758 2815 
Q 2500 3097 2075 3097 
Q 1594 3097 1305 2825 
Q 1016 2553 972 2059 
L 3022 2063 
z
" transform="scale(0.015625)"/>
       <path id="DejaVuSans-72" d="M 2631 2963 
Q 2534 3019 2420 3045 
Q 2306 3072 2169 3072 
Q 1681 3072 1420 2755 
Q 1159 2438 1159 1844 
L 1159 0 
L 581 0 
L 581 3500 
L 1159 3500 
L 1159 2956 
Q 1341 3275 1631 3429 
Q 1922 3584 2338 3584 
Q 2397 3584 2469 3576 
Q 2541 3569 2628 3553 
L 2631 2963 
z
" transform="scale(0.015625)"/>
       <path id="DejaVuSans-20" transform="scale(0.015625)"/>
       <path id="DejaVuSans-6f" d="M 1959 3097 
Q 1497 3097 1228 2736 
Q 959 2375 959 1747 
Q 959 1119 1226 758 
Q 1494 397 1959 397 
Q 2419 397 2687 759 
Q 2956 1122 2956 1747 
Q 2956 2369 2687 2733 
Q 2419 3097 1959 3097 
z
M 1959 3584 
Q 2709 3584 3137 3096 
Q 3566 2609 3566 1747 
Q 3566 888 3137 398 
Q 2709 -91 1959 -91 
Q 1206 -91 779 398 
Q 353 888 353 1747 
Q 353 2609 779 3096 
Q 1206 3584 1959 3584 
z
" transform="scale(0.015625)"/>
       <path id="DejaVuSans-66" d="M 2375 4863 
L 2375 4384 
L 1825 4384 
Q 1516 4384 1395 4259 
Q 1275 4134 1275 3809 
L 1275 3500 
L 2222 3500 
L 2222 3053 
L 1275 3053 
L 1275 0 
L 697 0 
L 697 3053 
L 147 3053 
L 147 3500 
L 697 3500 
L 697 3744 
Q 697 4328 969 4595 
Q 1241 4863 1831 4863 
L 2375 4863 
z
" transform="scale(0.015625)"/>
       <path id="DejaVuSans-70" d="M 1159 525 
L 1159 -1331 
L 581 -1331 
L 581 3500 
L 1159 3500 
L 1159 2969 
Q 1341 3281 1617 3432 
Q 1894 3584 2278 3584 
Q 2916 3584 3314 3078 
Q 3713 2572 3713 1747 
Q 3713 922 3314 415 
Q 2916 -91 2278 -91 
Q 1894 -91 1617 61 
Q 1341 213 1159 525 
z
M 3116 1747 
Q 3116 2381 2855 2742 
Q 2594 3103 2138 3103 
Q 1681 3103 1420 2742 
Q 1159 2381 1159 1747 
Q 1159 1113 1420 752 
Q 1681 391 2138 391 
Q 2594 391 2855 752 
Q 3116 1113 3116 1747 
z
" transform="scale(0.015625)"/>
       <path id="DejaVuSans-6a" d="M 603 3500 
L 1178 3500 
L 1178 -63 
Q 1178 -731 923 -1031 
Q 669 -1331 103 -1331 
L -116 -1331 
L -116 -844 
L 38 -844 
Q 366 -844 484 -692 
Q 603 -541 603 -63 
L 603 3500 
z
M 603 4863 
L 1178 4863 
L 1178 4134 
L 603 4134 
L 603 4863 
z
" transform="scale(0.015625)"/>
       <path id="DejaVuSans-63" d="M 3122 3366 
L 3122 2828 
Q 2878 2963 2633 3030 
Q 2388 3097 2138 3097 
Q 1578 3097 1268 2742 
Q 959 2388 959 1747 
Q 959 1106 1268 751 
Q 1578 397 2138 397 
Q 2388 397 2633 464 
Q 2878 531 3122 666 
L 3122 134 
Q 2881 22 2623 -34 
Q 2366 -91 2075 -91 
Q 1284 -91 818 406 
Q 353 903 353 1747 
Q 353 2603 823 3093 
Q 1294 3584 2113 3584 
Q 2378 3584 2631 3529 
Q 2884 3475 3122 3366 
z
" transform="scale(0.015625)"/>
       <path id="DejaVuSans-74" d="M 1172 4494 
L 1172 3500 
L 2356 3500 
L 2356 3053 
L 1172 3053 
L 1172 1153 
Q 1172 725 1289 603 
Q 1406 481 1766 481 
L 2356 481 
L 2356 0 
L 1766 0 
Q 1100 0 847 248 
Q 594 497 594 1153 
L 594 3053 
L 172 3053 
L 172 3500 
L 594 3500 
L 594 4494 
L 1172 4494 
z
" transform="scale(0.015625)"/>
       <path id="DejaVuSans-73" d="M 2834 3397 
L 2834 2853 
Q 2591 2978 2328 3040 
Q 2066 3103 1784 3103 
Q 1356 3103 1142 2972 
Q 928 2841 928 2578 
Q 928 2378 1081 2264 
Q 1234 2150 1697 2047 
L 1894 2003 
Q 2506 1872 2764 1633 
Q 3022 1394 3022 966 
Q 3022 478 2636 193 
Q 2250 -91 1575 -91 
Q 1294 -91 989 -36 
Q 684 19 347 128 
L 347 722 
Q 666 556 975 473 
Q 1284 391 1588 391 
Q 1994 391 2212 530 
Q 2431 669 2431 922 
Q 2431 1156 2273 1281 
Q 2116 1406 1581 1522 
L 1381 1569 
Q 847 1681 609 1914 
Q 372 2147 372 2553 
Q 372 3047 722 3315 
Q 1072 3584 1716 3584 
Q 2034 3584 2315 3537 
Q 2597 3491 2834 3397 
z
" transform="scale(0.015625)"/>
      </defs>
      <use xlink:href="#DejaVuSans-4e"/>
      <use xlink:href="#DejaVuSans-75" transform="translate(74.804688 0)"/>
      <use xlink:href="#DejaVuSans-6d" transform="translate(138.183594 0)"/>
      <use xlink:href="#DejaVuSans-62" transform="translate(235.595703 0)"/>
      <use xlink:href="#DejaVuSans-65" transform="translate(299.072266 0)"/>
      <use xlink:href="#DejaVuSans-72" transform="translate(360.595703 0)"/>
      <use xlink:href="#DejaVuSans-20" transform="translate(401.708984 0)"/>
      <use xlink:href="#DejaVuSans-6f" transform="translate(433.496094 0)"/>
      <use xlink:href="#DejaVuSans-66" transform="translate(494.677734 0)"/>
      <use xlink:href="#DejaVuSans-20" transform="translate(529.882812 0)"/>
      <use xlink:href="#DejaVuSans-70" transform="translate(561.669922 0)"/>
      <use xlink:href="#DejaVuSans-72" transform="translate(625.146484 0)"/>
      <use xlink:href="#DejaVuSans-6f" transform="translate(664.009766 0)"/>
      <use xlink:href="#DejaVuSans-6a" transform="translate(725.191406 0)"/>
      <use xlink:href="#DejaVuSans-65" transform="translate(752.974609 0)"/>
      <use xlink:href="#DejaVuSans-63" transform="translate(814.498047 0)"/>
      <use xlink:href="#DejaVuSans-74" transform="translate(869.478516 0)"/>
      <use xlink:href="#DejaVuSans-73" transform="translate(908.6875 0)"/>
     </g>
    </g>
   </g>
   <g id="matplotlib.axis_2">
    <g id="ytick_1">
     <g id="line2d_13">
      <defs>
       <path id="m56121a999b" d="M 0 0 
L -3.5 0 
" style="stroke: #898781; stroke-width: 0.8"/>
      </defs>
      <g>
       <use xlink:href="#m56121a999b" x="199.69" y="474.243752" style="fill: #898781; stroke: #898781; stroke-width: 0.8"/>
      </g>
     </g>
     <g id="text_8">
      <!-- aussda -->
      <g style="fill: #0b0b0b" transform="translate(157.329062 478.042971) scale(0.1 -0.1)">
       <defs>
        <path id="DejaVuSans-61" d="M 2194 1759 
Q 1497 1759 1228 1600 
Q 959 1441 959 1056 
Q 959 750 1161 570 
Q 1363 391 1709 391 
Q 2188 391 2477 730 
Q 2766 1069 2766 1631 
L 2766 1759 
L 2194 1759 
z
M 3341 1997 
L 3341 0 
L 2766 0 
L 2766 531 
Q 2569 213 2275 61 
Q 1981 -91 1556 -91 
Q 1019 -91 701 211 
Q 384 513 384 1019 
Q 384 1609 779 1909 
Q 1175 2209 1959 2209 
L 2766 2209 
L 2766 2266 
Q 2766 2663 2505 2880 
Q 2244 3097 1772 3097 
Q 1472 3097 1187 3025 
Q 903 2953 641 2809 
L 641 3341 
Q 956 3463 1253 3523 
Q 1550 3584 1831 3584 
Q 2591 3584 2966 3190 
Q 3341 2797 3341 1997 
z
" transform="scale(0.015625)"/>
        <path id="DejaVuSans-64" d="M 2906 2969 
L 2906 4863 
L 3481 4863 
L 3481 0 
L 2906 0 
L 2906 525 
Q 2725 213 2448 61 
Q 2172 -91 1784 -91 
Q 1150 -91 751 415 
Q 353 922 353 1747 
Q 353 2572 751 3078 
Q 1150 3584 1784 3584 
Q 2172 3584 2448 3432 
Q 2725 3281 2906 2969 
z
M 947 1747 
Q 947 1113 1208 752 
Q 1469 391 1925 391 
Q 2381 391 2643 752 
Q 2906 1113 2906 1747 
Q 2906 2381 2643 2742 
Q 2381 3103 1925 3103 
Q 1469 3103 1208 2742 
Q 947 2381 947 1747 
z
" transform="scale(0.015625)"/>
       </defs>
       <use xlink:href="#DejaVuSans-61"/>
       <use xlink:href="#DejaVuSans-75" transform="translate(61.279297 0)"/>
       <use xlink:href="#DejaVuSans-73" transform="translate(124.658203 0)"/>
       <use xlink:href="#DejaVuSans-73" transform="translate(176.757812 0)"/>
       <use xlink:href="#DejaVuSans-64" transform="translate(228.857422 0)"/>
       <use xlink:href="#DejaVuSans-61" transform="translate(292.333984 0)"/>
      </g>
     </g>
    </g>
    <g id="ytick_2">
     <g id="line2d_14">
      <g>
       <use xlink:href="#m56121a999b" x="199.69" y="451.112224" style="fill: #898781; stroke: #898781; stroke-width: 0.8"/>
      </g>
     </g>
     <g id="text_9">
      <!-- N/A -->
      <g style="fill: #0b0b0b" transform="translate(174.999375 454.911443) scale(0.1 -0.1)">
       <defs>
        <path id="DejaVuSans-2f" d="M 1625 4666 
L 2156 4666 
L 531 -594 
L 0 -594 
L 1625 4666 
z
" transform="scale(0.015625)"/>
        <path id="DejaVuSans-41" d="M 2188 4044 
L 1331 1722 
L 3047 1722 
L 2188 4044 
z
M 1831 4666 
L 2547 4666 
L 4325 0 
L 3669 0 
L 3244 1197 
L 1141 1197 
L 716 0 
L 50 0 
L 1831 4666 
z
" transform="scale(0.015625)"/>
       </defs>
       <use xlink:href="#DejaVuSans-4e"/>
       <use xlink:href="#DejaVuSans-2f" transform="translate(74.804688 0)"/>
       <use xlink:href="#DejaVuSans-41" transform="translate(108.496094 0)"/>
      </g>
     </g>
    </g>
    <g id="ytick_3">
     <g id="line2d_15">
      <g>
       <use xlink:href="#m56121a999b" x="199.69" y="427.980696" style="fill: #898781; stroke: #898781; stroke-width: 0.8"/>
      </g>
     </g>
     <g id="text_10">
      <!-- sada -->
      <g style="fill: #0b0b0b" transform="translate(168.875937 431.779915) scale(0.1 -0.1)">
       <use xlink:href="#DejaVuSans-73"/>
       <use xlink:href="#DejaVuSans-61" transform="translate(52.099609 0)"/>
       <use xlink:href="#DejaVuSans-64" transform="translate(113.378906 0)"/>
       <use xlink:href="#DejaVuSans-61" transform="translate(176.855469 0)"/>
      </g>
     </g>
    </g>
    <g id="ytick_4">
     <g id="line2d_16">
      <g>
       <use xlink:href="#m56121a999b" x="199.69" y="404.849168" style="fill: #898781; stroke: #898781; stroke-width: 0.8"/>
      </g>
     </g>
     <g id="text_11">
      <!-- hihsn -->
      <g style="fill: #0b0b0b" transform="translate(165.69 408.648387) scale(0.1 -0.1)">
       <defs>
        <path id="DejaVuSans-68" d="M 3513 2113 
L 3513 0 
L 2938 0 
L 2938 2094 
Q 2938 2591 2744 2837 
Q 2550 3084 2163 3084 
Q 1697 3084 1428 2787 
Q 1159 2491 1159 1978 
L 1159 0 
L 581 0 
L 581 4863 
L 1159 4863 
L 1159 2956 
Q 1366 3272 1645 3428 
Q 1925 3584 2291 3584 
Q 2894 3584 3203 3211 
Q 3513 2838 3513 2113 
z
" transform="scale(0.015625)"/>
        <path id="DejaVuSans-69" d="M 603 3500 
L 1178 3500 
L 1178 0 
L 603 0 
L 603 3500 
z
M 603 4863 
L 1178 4863 
L 1178 4134 
L 603 4134 
L 603 4863 
z
" transform="scale(0.015625)"/>
        <path id="DejaVuSans-6e" d="M 3513 2113 
L 3513 0 
L 2938 0 
L 2938 2094 
Q 2938 2591 2744 2837 
Q 2550 3084 2163 3084 
Q 1697 3084 1428 2787 
Q 1159 2491 1159 1978 
L 1159 0 
L 581 0 
L 581 3500 
L 1159 3500 
L 1159 2956 
Q 1366 3272 1645 3428 
Q 1925 3584 2291 3584 
Q 2894 3584 3203 3211 
Q 3513 2838 3513 2113 
z
" transform="scale(0.015625)"/>
       </defs>
       <use xlink:href="#DejaVuSans-68"/>
       <use xlink:href="#DejaVuSans-69" transform="translate(63.378906 0)"/>
       <use xlink:href="#DejaVuSans-68" transform="translate(91.162109 0)"/>
       <use xlink:href="#DejaVuSans-73" transform="translate(154.541016 0)"/>
       <use xlink:href="#DejaVuSans-6e" transform="translate(206.640625 0)"/>
      </g>
     </g>
    </g>
    <g id="ytick_5">
     <g id="line2d_17">
      <g>
       <use xlink:href="#m56121a999b" x="199.69" y="381.71764" style="fill: #898781; stroke: #898781; stroke-width: 0.8"/>
      </g>
     </g>
     <g id="text_12">
      <!-- columbia-oral-history-archive -->
      <g style="fill: #0b0b0b" transform="translate(45.89625 385.516859) scale(0.1 -0.1)">
       <defs>
        <path id="DejaVuSans-6c" d="M 603 4863 
L 1178 4863 
L 1178 0 
L 603 0 
L 603 4863 
z
" transform="scale(0.015625)"/>
        <path id="DejaVuSans-2d" d="M 313 2009 
L 1997 2009 
L 1997 1497 
L 313 1497 
L 313 2009 
z
" transform="scale(0.015625)"/>
        <path id="DejaVuSans-79" d="M 2059 -325 
Q 1816 -950 1584 -1140 
Q 1353 -1331 966 -1331 
L 506 -1331 
L 506 -850 
L 844 -850 
Q 1081 -850 1212 -737 
Q 1344 -625 1503 -206 
L 1606 56 
L 191 3500 
L 800 3500 
L 1894 763 
L 2988 3500 
L 3597 3500 
L 2059 -325 
z
" transform="scale(0.015625)"/>
        <path id="DejaVuSans-76" d="M 191 3500 
L 800 3500 
L 1894 563 
L 2988 3500 
L 3597 3500 
L 2284 0 
L 1503 0 
L 191 3500 
z
" transform="scale(0.015625)"/>
       </defs>
       <use xlink:href="#DejaVuSans-63"/>
       <use xlink:href="#DejaVuSans-6f" transform="translate(54.980469 0)"/>
       <use xlink:href="#DejaVuSans-6c" transform="translate(116.162109 0)"/>
       <use xlink:href="#DejaVuSans-75" transform="translate(143.945312 0)"/>
       <use xlink:href="#DejaVuSans-6d" transform="translate(207.324219 0)"/>
       <use xlink:href="#DejaVuSans-62" transform="translate(304.736328 0)"/>
       <use xlink:href="#DejaVuSans-69" transform="translate(368.212891 0)"/>
       <use xlink:href="#DejaVuSans-61" transform="translate(395.996094 0)"/>
       <use xlink:href="#DejaVuSans-2d" transform="translate(457.275391 0)"/>
       <use xlink:href="#DejaVuSans-6f" transform="translate(495.234375 0)"/>
       <use xlink:href="#DejaVuSans-72" transform="translate(556.416016 0)"/>
       <use xlink:href="#DejaVuSans-61" transform="translate(597.529297 0)"/>
       <use xlink:href="#DejaVuSans-6c" transform="translate(658.808594 0)"/>
       <use xlink:href="#DejaVuSans-2d" transform="translate(686.591797 0)"/>
       <use xlink:href="#DejaVuSans-68" transform="translate(722.675781 0)"/>
       <use xlink:href="#DejaVuSans-69" transform="translate(786.054688 0)"/>
       <use xlink:href="#DejaVuSans-73" transform="translate(813.837891 0)"/>
       <use xlink:href="#DejaVuSans-74" transform="translate(865.9375 0)"/>
       <use xlink:href="#DejaVuSans-6f" transform="translate(905.146484 0)"/>
       <use xlink:href="#DejaVuSans-72" transform="translate(966.328125 0)"/>
       <use xlink:href="#DejaVuSans-79" transform="translate(1007.441406 0)"/>
       <use xlink:href="#DejaVuSans-2d" transform="translate(1064.871094 0)"/>
       <use xlink:href="#DejaVuSans-61" transform="translate(1100.955078 0)"/>
       <use xlink:href="#DejaVuSans-72" transform="translate(1162.234375 0)"/>
       <use xlink:href="#DejaVuSans-63" transform="translate(1201.097656 0)"/>
       <use xlink:href="#DejaVuSans-68" transform="translate(1256.078125 0)"/>
       <use xlink:href="#DejaVuSans-69" transform="translate(1319.457031 0)"/>
       <use xlink:href="#DejaVuSans-76" transform="translate(1347.240234 0)"/>
       <use xlink:href="#DejaVuSans-65" transform="translate(1406.419922 0)"/>
      </g>
     </g>
    </g>
    <g id="ytick_6">
     <g id="line2d_18">
      <g>
       <use xlink:href="#m56121a999b" x="199.69" y="358.586112" style="fill: #898781; stroke: #898781; stroke-width: 0.8"/>
      </g>
     </g>
     <g id="text_13">
      <!-- dataverse-no -->
      <g style="fill: #0b0b0b" transform="translate(126.555625 362.385331) scale(0.1 -0.1)">
       <use xlink:href="#DejaVuSans-64"/>
       <use xlink:href="#DejaVuSans-61" transform="translate(63.476562 0)"/>
       <use xlink:href="#DejaVuSans-74" transform="translate(124.755859 0)"/>
       <use xlink:href="#DejaVuSans-61" transform="translate(163.964844 0)"/>
       <use xlink:href="#DejaVuSans-76" transform="translate(225.244141 0)"/>
       <use xlink:href="#DejaVuSans-65" transform="translate(284.423828 0)"/>
       <use xlink:href="#DejaVuSans-72" transform="translate(345.947266 0)"/>
       <use xlink:href="#DejaVuSans-73" transform="translate(387.060547 0)"/>
       <use xlink:href="#DejaVuSans-65" transform="translate(439.160156 0)"/>
       <use xlink:href="#DejaVuSans-2d" transform="translate(500.683594 0)"/>
       <use xlink:href="#DejaVuSans-6e" transform="translate(536.767578 0)"/>
       <use xlink:href="#DejaVuSans-6f" transform="translate(600.146484 0)"/>
      </g>
     </g>
    </g>
    <g id="ytick_7">
     <g id="line2d_19">
      <g>
       <use xlink:href="#m56121a999b" x="199.69" y="335.454584" style="fill: #898781; stroke: #898781; stroke-width: 0.8"/>
      </g>
     </g>
     <g id="text_14">
      <!-- harvard-murray-archive -->
      <g style="fill: #0b0b0b" transform="translate(73.869687 339.253803) scale(0.1 -0.1)">
       <use xlink:href="#DejaVuSans-68"/>
       <use xlink:href="#DejaVuSans-61" transform="translate(63.378906 0)"/>
       <use xlink:href="#DejaVuSans-72" transform="translate(124.658203 0)"/>
       <use xlink:href="#DejaVuSans-76" transform="translate(165.771484 0)"/>
       <use xlink:href="#DejaVuSans-61" transform="translate(224.951172 0)"/>
       <use xlink:href="#DejaVuSans-72" transform="translate(286.230469 0)"/>
       <use xlink:href="#DejaVuSans-64" transform="translate(325.59375 0)"/>
       <use xlink:href="#DejaVuSans-2d" transform="translate(389.070312 0)"/>
       <use xlink:href="#DejaVuSans-6d" transform="translate(425.154297 0)"/>
       <use xlink:href="#DejaVuSans-75" transform="translate(522.566406 0)"/>
       <use xlink:href="#DejaVuSans-72" transform="translate(585.945312 0)"/>
       <use xlink:href="#DejaVuSans-72" transform="translate(625.308594 0)"/>
       <use xlink:href="#DejaVuSans-61" transform="translate(666.421875 0)"/>
       <use xlink:href="#DejaVuSans-79" transform="translate(727.701172 0)"/>
       <use xlink:href="#DejaVuSans-2d" transform="translate(785.130859 0)"/>
       <use xlink:href="#DejaVuSans-61" transform="translate(821.214844 0)"/>
       <use xlink:href="#DejaVuSans-72" transform="translate(882.494141 0)"/>
       <use xlink:href="#DejaVuSans-63" transform="translate(921.357422 0)"/>
       <use xlink:href="#DejaVuSans-68" transform="translate(976.337891 0)"/>
       <use xlink:href="#DejaVuSans-69" transform="translate(1039.716797 0)"/>
       <use xlink:href="#DejaVuSans-76" transform="translate(1067.5 0)"/>
       <use xlink:href="#DejaVuSans-65" transform="translate(1126.679688 0)"/>
      </g>
     </g>
    </g>
    <g id="ytick_8">
     <g id="line2d_20">
      <g>
       <use xlink:href="#m56121a999b" x="199.69" y="312.323056" style="fill: #898781; stroke: #898781; stroke-width: 0.8"/>
      </g>
     </g>
     <g id="text_15">
      <!-- ada -->
      <g style="fill: #0b0b0b" transform="translate(174.085312 316.122275) scale(0.1 -0.1)">
       <use xlink:href="#DejaVuSans-61"/>
       <use xlink:href="#DejaVuSans-64" transform="translate(61.279297 0)"/>
       <use xlink:href="#DejaVuSans-61" transform="translate(124.755859 0)"/>
      </g>
     </g>
    </g>
    <g id="ytick_9">
     <g id="line2d_21">
      <g>
       <use xlink:href="#m56121a999b" x="199.69" y="289.191528" style="fill: #898781; stroke: #898781; stroke-width: 0.8"/>
      </g>
     </g>
     <g id="text_16">
      <!-- icpsr -->
      <g style="fill: #0b0b0b" transform="translate(168.744687 292.990747) scale(0.1 -0.1)">
       <use xlink:href="#DejaVuSans-69"/>
       <use xlink:href="#DejaVuSans-63" transform="translate(27.783203 0)"/>
       <use xlink:href="#DejaVuSans-70" transform="translate(82.763672 0)"/>
       <use xlink:href="#DejaVuSans-73" transform="translate(146.240234 0)"/>
       <use xlink:href="#DejaVuSans-72" transform="translate(198.339844 0)"/>
      </g>
     </g>
    </g>
    <g id="ytick_10">
     <g id="line2d_22">
      <g>
       <use xlink:href="#m56121a999b" x="199.69" y="266.06" style="fill: #898781; stroke: #898781; stroke-width: 0.8"/>
      </g>
     </g>
     <g id="text_17">
      <!-- cessda -->
      <g style="fill: #0b0b0b" transform="translate(158.143125 269.859219) scale(0.1 -0.1)">
       <use xlink:href="#DejaVuSans-63"/>
       <use xlink:href="#DejaVuSans-65" transform="translate(54.980469 0)"/>
       <use xlink:href="#DejaVuSans-73" transform="translate(116.503906 0)"/>
       <use xlink:href="#DejaVuSans-73" transform="translate(168.603516 0)"/>
       <use xlink:href="#DejaVuSans-64" transform="translate(220.703125 0)"/>
       <use xlink:href="#DejaVuSans-61" transform="translate(284.179688 0)"/>
      </g>
     </g>
    </g>
    <g id="ytick_11">
     <g id="line2d_23">
      <g>
       <use xlink:href="#m56121a999b" x="199.69" y="242.928472" style="fill: #898781; stroke: #898781; stroke-width: 0.8"/>
      </g>
     </g>
     <g id="text_18">
      <!-- sikt -->
      <g style="fill: #0b0b0b" transform="translate(174.991562 246.727691) scale(0.1 -0.1)">
       <defs>
        <path id="DejaVuSans-6b" d="M 581 4863 
L 1159 4863 
L 1159 1991 
L 2875 3500 
L 3609 3500 
L 1753 1863 
L 3688 0 
L 2938 0 
L 1159 1709 
L 1159 0 
L 581 0 
L 581 4863 
z
" transform="scale(0.015625)"/>
       </defs>
       <use xlink:href="#DejaVuSans-73"/>
       <use xlink:href="#DejaVuSans-69" transform="translate(52.099609 0)"/>
       <use xlink:href="#DejaVuSans-6b" transform="translate(79.882812 0)"/>
       <use xlink:href="#DejaVuSans-74" transform="translate(137.792969 0)"/>
      </g>
     </g>
    </g>
    <g id="ytick_12">
     <g id="line2d_24">
      <g>
       <use xlink:href="#m56121a999b" x="199.69" y="219.796944" style="fill: #898781; stroke: #898781; stroke-width: 0.8"/>
      </g>
     </g>
     <g id="text_19">
      <!-- syracuse-qualitative-data-repository -->
      <g style="fill: #0b0b0b" transform="translate(11.024375 223.596163) scale(0.1 -0.1)">
       <defs>
        <path id="DejaVuSans-71" d="M 947 1747 
Q 947 1113 1208 752 
Q 1469 391 1925 391 
Q 2381 391 2643 752 
Q 2906 1113 2906 1747 
Q 2906 2381 2643 2742 
Q 2381 3103 1925 3103 
Q 1469 3103 1208 2742 
Q 947 2381 947 1747 
z
M 2906 525 
Q 2725 213 2448 61 
Q 2172 -91 1784 -91 
Q 1150 -91 751 415 
Q 353 922 353 1747 
Q 353 2572 751 3078 
Q 1150 3584 1784 3584 
Q 2172 3584 2448 3432 
Q 2725 3281 2906 2969 
L 2906 3500 
L 3481 3500 
L 3481 -1331 
L 2906 -1331 
L 2906 525 
z
" transform="scale(0.015625)"/>
       </defs>
       <use xlink:href="#DejaVuSans-73"/>
       <use xlink:href="#DejaVuSans-79" transform="translate(52.099609 0)"/>
       <use xlink:href="#DejaVuSans-72" transform="translate(111.279297 0)"/>
       <use xlink:href="#DejaVuSans-61" transform="translate(152.392578 0)"/>
       <use xlink:href="#DejaVuSans-63" transform="translate(213.671875 0)"/>
       <use xlink:href="#DejaVuSans-75" transform="translate(268.652344 0)"/>
       <use xlink:href="#DejaVuSans-73" transform="translate(332.03125 0)"/>
       <use xlink:href="#DejaVuSans-65" transform="translate(384.130859 0)"/>
       <use xlink:href="#DejaVuSans-2d" transform="translate(445.654297 0)"/>
       <use xlink:href="#DejaVuSans-71" transform="translate(481.738281 0)"/>
       <use xlink:href="#DejaVuSans-75" transform="translate(545.214844 0)"/>
       <use xlink:href="#DejaVuSans-61" transform="translate(608.59375 0)"/>
       <use xlink:href="#DejaVuSans-6c" transform="translate(669.873047 0)"/>
       <use xlink:href="#DejaVuSans-69" transform="translate(697.65625 0)"/>
       <use xlink:href="#DejaVuSans-74" transform="translate(725.439453 0)"/>
       <use xlink:href="#DejaVuSans-61" transform="translate(764.648438 0)"/>
       <use xlink:href="#DejaVuSans-74" transform="translate(825.927734 0)"/>
       <use xlink:href="#DejaVuSans-69" transform="translate(865.136719 0)"/>
       <use xlink:href="#DejaVuSans-76" transform="translate(892.919922 0)"/>
       <use xlink:href="#DejaVuSans-65" transform="translate(952.099609 0)"/>
       <use xlink:href="#DejaVuSans-2d" transform="translate(1013.623047 0)"/>
       <use xlink:href="#DejaVuSans-64" transform="translate(1049.707031 0)"/>
       <use xlink:href="#DejaVuSans-61" transform="translate(1113.183594 0)"/>
       <use xlink:href="#DejaVuSans-74" transform="translate(1174.462891 0)"/>
       <use xlink:href="#DejaVuSans-61" transform="translate(1213.671875 0)"/>
       <use xlink:href="#DejaVuSans-2d" transform="translate(1274.951172 0)"/>
       <use xlink:href="#DejaVuSans-72" transform="translate(1311.035156 0)"/>
       <use xlink:href="#DejaVuSans-65" transform="translate(1349.898438 0)"/>
       <use xlink:href="#DejaVuSans-70" transform="translate(1411.421875 0)"/>
       <use xlink:href="#DejaVuSans-6f" transform="translate(1474.898438 0)"/>
       <use xlink:href="#DejaVuSans-73" transform="translate(1536.080078 0)"/>
       <use xlink:href="#DejaVuSans-69" transform="translate(1588.179688 0)"/>
       <use xlink:href="#DejaVuSans-74" transform="translate(1615.962891 0)"/>
       <use xlink:href="#DejaVuSans-6f" transform="translate(1655.171875 0)"/>
       <use xlink:href="#DejaVuSans-72" transform="translate(1716.353516 0)"/>
       <use xlink:href="#DejaVuSans-79" transform="translate(1757.466797 0)"/>
      </g>
     </g>
    </g>
    <g id="ytick_13">
     <g id="line2d_25">
      <g>
       <use xlink:href="#m56121a999b" x="199.69" y="196.665416" style="fill: #898781; stroke: #898781; stroke-width: 0.8"/>
      </g>
     </g>
     <g id="text_20">
      <!-- uk-data-service -->
      <g style="fill: #0b0b0b" transform="translate(114.999375 200.464635) scale(0.1 -0.1)">
       <use xlink:href="#DejaVuSans-75"/>
       <use xlink:href="#DejaVuSans-6b" transform="translate(63.378906 0)"/>
       <use xlink:href="#DejaVuSans-2d" transform="translate(121.289062 0)"/>
       <use xlink:href="#DejaVuSans-64" transform="translate(157.373047 0)"/>
       <use xlink:href="#DejaVuSans-61" transform="translate(220.849609 0)"/>
       <use xlink:href="#DejaVuSans-74" transform="translate(282.128906 0)"/>
       <use xlink:href="#DejaVuSans-61" transform="translate(321.337891 0)"/>
       <use xlink:href="#DejaVuSans-2d" transform="translate(382.617188 0)"/>
       <use xlink:href="#DejaVuSans-73" transform="translate(418.701172 0)"/>
       <use xlink:href="#DejaVuSans-65" transform="translate(470.800781 0)"/>
       <use xlink:href="#DejaVuSans-72" transform="translate(532.324219 0)"/>
       <use xlink:href="#DejaVuSans-76" transform="translate(573.4375 0)"/>
       <use xlink:href="#DejaVuSans-69" transform="translate(632.617188 0)"/>
       <use xlink:href="#DejaVuSans-63" transform="translate(660.400391 0)"/>
       <use xlink:href="#DejaVuSans-65" transform="translate(715.380859 0)"/>
      </g>
     </g>
    </g>
    <g id="ytick_14">
     <g id="line2d_26">
      <g>
       <use xlink:href="#m56121a999b" x="199.69" y="173.533888" style="fill: #898781; stroke: #898781; stroke-width: 0.8"/>
      </g>
     </g>
     <g id="text_21">
      <!-- finnish-social-science-data-archive -->
      <g style="fill: #0b0b0b" transform="translate(19.59625 177.333107) scale(0.1 -0.1)">
       <use xlink:href="#DejaVuSans-66"/>
       <use xlink:href="#DejaVuSans-69" transform="translate(35.205078 0)"/>
       <use xlink:href="#DejaVuSans-6e" transform="translate(62.988281 0)"/>
       <use xlink:href="#DejaVuSans-6e" transform="translate(126.367188 0)"/>
       <use xlink:href="#DejaVuSans-69" transform="translate(189.746094 0)"/>
       <use xlink:href="#DejaVuSans-73" transform="translate(217.529297 0)"/>
       <use xlink:href="#DejaVuSans-68" transform="translate(269.628906 0)"/>
       <use xlink:href="#DejaVuSans-2d" transform="translate(333.007812 0)"/>
       <use xlink:href="#DejaVuSans-73" transform="translate(369.091797 0)"/>
       <use xlink:href="#DejaVuSans-6f" transform="translate(421.191406 0)"/>
       <use xlink:href="#DejaVuSans-63" transform="translate(482.373047 0)"/>
       <use xlink:href="#DejaVuSans-69" transform="translate(537.353516 0)"/>
       <use xlink:href="#DejaVuSans-61" transform="translate(565.136719 0)"/>
       <use xlink:href="#DejaVuSans-6c" transform="translate(626.416016 0)"/>
       <use xlink:href="#DejaVuSans-2d" transform="translate(654.199219 0)"/>
       <use xlink:href="#DejaVuSans-73" transform="translate(690.283203 0)"/>
       <use xlink:href="#DejaVuSans-63" transform="translate(742.382812 0)"/>
       <use xlink:href="#DejaVuSans-69" transform="translate(797.363281 0)"/>
       <use xlink:href="#DejaVuSans-65" transform="translate(825.146484 0)"/>
       <use xlink:href="#DejaVuSans-6e" transform="translate(886.669922 0)"/>
       <use xlink:href="#DejaVuSans-63" transform="translate(950.048828 0)"/>
       <use xlink:href="#DejaVuSans-65" transform="translate(1005.029297 0)"/>
       <use xlink:href="#DejaVuSans-2d" transform="translate(1066.552734 0)"/>
       <use xlink:href="#DejaVuSans-64" transform="translate(1102.636719 0)"/>
       <use xlink:href="#DejaVuSans-61" transform="translate(1166.113281 0)"/>
       <use xlink:href="#DejaVuSans-74" transform="translate(1227.392578 0)"/>
       <use xlink:href="#DejaVuSans-61" transform="translate(1266.601562 0)"/>
       <use xlink:href="#DejaVuSans-2d" transform="translate(1327.880859 0)"/>
       <use xlink:href="#DejaVuSans-61" transform="translate(1363.964844 0)"/>
       <use xlink:href="#DejaVuSans-72" transform="translate(1425.244141 0)"/>
       <use xlink:href="#DejaVuSans-63" transform="translate(1464.107422 0)"/>
       <use xlink:href="#DejaVuSans-68" transform="translate(1519.087891 0)"/>
       <use xlink:href="#DejaVuSans-69" transform="translate(1582.466797 0)"/>
       <use xlink:href="#DejaVuSans-76" transform="translate(1610.25 0)"/>
       <use xlink:href="#DejaVuSans-65" transform="translate(1669.429688 0)"/>
      </g>
     </g>
    </g>
    <g id="ytick_15">
     <g id="line2d_27">
      <g>
       <use xlink:href="#m56121a999b" x="199.69" y="150.40236" style="fill: #898781; stroke: #898781; stroke-width: 0.8"/>
      </g>
     </g>
     <g id="text_22">
      <!-- open-data-uni-halle -->
      <g style="fill: #0b0b0b" transform="translate(94.755625 154.201579) scale(0.1 -0.1)">
       <use xlink:href="#DejaVuSans-6f"/>
       <use xlink:href="#DejaVuSans-70" transform="translate(61.181641 0)"/>
       <use xlink:href="#DejaVuSans-65" transform="translate(124.658203 0)"/>
       <use xlink:href="#DejaVuSans-6e" transform="translate(186.181641 0)"/>
       <use xlink:href="#DejaVuSans-2d" transform="translate(249.560547 0)"/>
       <use xlink:href="#DejaVuSans-64" transform="translate(285.644531 0)"/>
       <use xlink:href="#DejaVuSans-61" transform="translate(349.121094 0)"/>
       <use xlink:href="#DejaVuSans-74" transform="translate(410.400391 0)"/>
       <use xlink:href="#DejaVuSans-61" transform="translate(449.609375 0)"/>
       <use xlink:href="#DejaVuSans-2d" transform="translate(510.888672 0)"/>
       <use xlink:href="#DejaVuSans-75" transform="translate(546.972656 0)"/>
       <use xlink:href="#DejaVuSans-6e" transform="translate(610.351562 0)"/>
       <use xlink:href="#DejaVuSans-69" transform="translate(673.730469 0)"/>
       <use xlink:href="#DejaVuSans-2d" transform="translate(701.513672 0)"/>
       <use xlink:href="#DejaVuSans-68" transform="translate(737.597656 0)"/>
       <use xlink:href="#DejaVuSans-61" transform="translate(800.976562 0)"/>
       <use xlink:href="#DejaVuSans-6c" transform="translate(862.255859 0)"/>
       <use xlink:href="#DejaVuSans-6c" transform="translate(890.039062 0)"/>
       <use xlink:href="#DejaVuSans-65" transform="translate(917.822266 0)"/>
      </g>
     </g>
    </g>
    <g id="ytick_16">
     <g id="line2d_28">
      <g>
       <use xlink:href="#m56121a999b" x="199.69" y="127.270832" style="fill: #898781; stroke: #898781; stroke-width: 0.8"/>
      </g>
     </g>
     <g id="text_23">
      <!-- dryad -->
      <g style="fill: #0b0b0b" transform="translate(163.835312 131.07005) scale(0.1 -0.1)">
       <use xlink:href="#DejaVuSans-64"/>
       <use xlink:href="#DejaVuSans-72" transform="translate(63.476562 0)"/>
       <use xlink:href="#DejaVuSans-79" transform="translate(104.589844 0)"/>
       <use xlink:href="#DejaVuSans-61" transform="translate(163.769531 0)"/>
       <use xlink:href="#DejaVuSans-64" transform="translate(225.048828 0)"/>
      </g>
     </g>
    </g>
    <g id="ytick_17">
     <g id="line2d_29">
      <g>
       <use xlink:href="#m56121a999b" x="199.69" y="104.139304" style="fill: #898781; stroke: #898781; stroke-width: 0.8"/>
      </g>
     </g>
     <g id="text_24">
      <!-- dans -->
      <g style="fill: #0b0b0b" transform="translate(168.666562 107.938522) scale(0.1 -0.1)">
       <use xlink:href="#DejaVuSans-64"/>
       <use xlink:href="#DejaVuSans-61" transform="translate(63.476562 0)"/>
       <use xlink:href="#DejaVuSans-6e" transform="translate(124.755859 0)"/>
       <use xlink:href="#DejaVuSans-73" transform="translate(188.134766 0)"/>
      </g>
     </g>
    </g>
    <g id="ytick_18">
     <g id="line2d_30">
      <g>
       <use xlink:href="#m56121a999b" x="199.69" y="81.007776" style="fill: #898781; stroke: #898781; stroke-width: 0.8"/>
      </g>
     </g>
     <g id="text_25">
      <!-- harvard-dataverse -->
      <g style="fill: #0b0b0b" transform="translate(100.104062 84.806994) scale(0.1 -0.1)">
       <use xlink:href="#DejaVuSans-68"/>
       <use xlink:href="#DejaVuSans-61" transform="translate(63.378906 0)"/>
       <use xlink:href="#DejaVuSans-72" transform="translate(124.658203 0)"/>
       <use xlink:href="#DejaVuSans-76" transform="translate(165.771484 0)"/>
       <use xlink:href="#DejaVuSans-61" transform="translate(224.951172 0)"/>
       <use xlink:href="#DejaVuSans-72" transform="translate(286.230469 0)"/>
       <use xlink:href="#DejaVuSans-64" transform="translate(325.59375 0)"/>
       <use xlink:href="#DejaVuSans-2d" transform="translate(389.070312 0)"/>
       <use xlink:href="#DejaVuSans-64" transform="translate(425.154297 0)"/>
       <use xlink:href="#DejaVuSans-61" transform="translate(488.630859 0)"/>
       <use xlink:href="#DejaVuSans-74" transform="translate(549.910156 0)"/>
       <use xlink:href="#DejaVuSans-61" transform="translate(589.119141 0)"/>
       <use xlink:href="#DejaVuSans-76" transform="translate(650.398438 0)"/>
       <use xlink:href="#DejaVuSans-65" transform="translate(709.578125 0)"/>
       <use xlink:href="#DejaVuSans-72" transform="translate(771.101562 0)"/>
       <use xlink:href="#DejaVuSans-73" transform="translate(812.214844 0)"/>
       <use xlink:href="#DejaVuSans-65" transform="translate(864.314453 0)"/>
      </g>
     </g>
    </g>
    <g id="ytick_19">
     <g id="line2d_31">
      <g>
       <use xlink:href="#m56121a999b" x="199.69" y="57.876248" style="fill: #898781; stroke: #898781; stroke-width: 0.8"/>
      </g>
     </g>
     <g id="text_26">
      <!-- zenodo -->
      <g style="fill: #0b0b0b" transform="translate(156.365 61.675466) scale(0.1 -0.1)">
       <defs>
        <path id="DejaVuSans-7a" d="M 353 3500 
L 3084 3500 
L 3084 2975 
L 922 459 
L 3084 459 
L 3084 0 
L 275 0 
L 275 525 
L 2438 3041 
L 353 3041 
L 353 3500 
z
" transform="scale(0.015625)"/>
       </defs>
       <use xlink:href="#DejaVuSans-7a"/>
       <use xlink:href="#DejaVuSans-65" transform="translate(52.490234 0)"/>
       <use xlink:href="#DejaVuSans-6e" transform="translate(114.013672 0)"/>
       <use xlink:href="#DejaVuSans-6f" transform="translate(177.392578 0)"/>
       <use xlink:href="#DejaVuSans-64" transform="translate(238.574219 0)"/>
       <use xlink:href="#DejaVuSans-6f" transform="translate(302.050781 0)"/>
      </g>
     </g>
    </g>
   </g>
   <g id="patch_3">
    <path d="M 199.69 483.496364 
L 200.4516 483.496364 
L 200.4516 464.991141 
L 199.69 464.991141 
z
" clip-path="url(#p203f2792e3)" style="fill: #2a78d6"/>
   </g>
   <g id="patch_4">
    <path d="M 199.69 460.364836 
L 200.702766 460.364836 
L 200.702766 441.859613 
L 199.69 441.859613 
z
" clip-path="url(#p203f2792e3)" style="fill: #2a78d6"/>
   </g>
   <g id="patch_5">
    <path d="M 199.69 437.233308 
L 201.512979 437.233308 
L 201.512979 418.728085 
L 199.69 418.728085 
z
" clip-path="url(#p203f2792e3)" style="fill: #2a78d6"/>
   </g>
   <g id="patch_6">
    <path d="M 199.69 414.101779 
L 202.298885 414.101779 
L 202.298885 395.596557 
L 199.69 395.596557 
z
" clip-path="url(#p203f2792e3)" style="fill: #2a78d6"/>
   </g>
   <g id="patch_7">
    <path d="M 199.69 390.970251 
L 202.339396 390.970251 
L 202.339396 372.465029 
L 199.69 372.465029 
z
" clip-path="url(#p203f2792e3)" style="fill: #2a78d6"/>
   </g>
   <g id="patch_8">
    <path d="M 199.69 367.838723 
L 203.044281 367.838723 
L 203.044281 349.333501 
L 199.69 349.333501 
z
" clip-path="url(#p203f2792e3)" style="fill: #2a78d6"/>
   </g>
   <g id="patch_9">
    <path d="M 199.69 344.707195 
L 203.109098 344.707195 
L 203.109098 326.201973 
L 199.69 326.201973 
z
" clip-path="url(#p203f2792e3)" style="fill: #2a78d6"/>
   </g>
   <g id="patch_10">
    <path d="M 199.69 321.575667 
L 203.514204 321.575667 
L 203.514204 303.070445 
L 199.69 303.070445 
z
" clip-path="url(#p203f2792e3)" style="fill: #2a78d6"/>
   </g>
   <g id="patch_11">
    <path d="M 199.69 298.444139 
L 203.984127 298.444139 
L 203.984127 279.938917 
L 199.69 279.938917 
z
" clip-path="url(#p203f2792e3)" style="fill: #2a78d6"/>
   </g>
   <g id="patch_12">
    <path d="M 199.69 275.312611 
L 204.940178 275.312611 
L 204.940178 256.807389 
L 199.69 256.807389 
z
" clip-path="url(#p203f2792e3)" style="fill: #2a78d6"/>
   </g>
   <g id="patch_13">
    <path d="M 199.69 252.181083 
L 207.387021 252.181083 
L 207.387021 233.675861 
L 199.69 233.675861 
z
" clip-path="url(#p203f2792e3)" style="fill: #2a78d6"/>
   </g>
   <g id="patch_14">
    <path d="M 199.69 229.049555 
L 210.109335 229.049555 
L 210.109335 210.544333 
L 199.69 210.544333 
z
" clip-path="url(#p203f2792e3)" style="fill: #2a78d6"/>
   </g>
   <g id="patch_15">
    <path d="M 199.69 205.918027 
L 212.086254 205.918027 
L 212.086254 187.412805 
L 199.69 187.412805 
z
" clip-path="url(#p203f2792e3)" style="fill: #2a78d6"/>
   </g>
   <g id="patch_16">
    <path d="M 199.69 182.786499 
L 223.745215 182.786499 
L 223.745215 164.281277 
L 199.69 164.281277 
z
" clip-path="url(#p203f2792e3)" style="fill: #2a78d6"/>
   </g>
   <g id="patch_17">
    <path d="M 199.69 159.654971 
L 227.010372 159.654971 
L 227.010372 141.149749 
L 199.69 141.149749 
z
" clip-path="url(#p203f2792e3)" style="fill: #2a78d6"/>
   </g>
   <g id="patch_18">
    <path d="M 199.69 136.523443 
L 237.397299 136.523443 
L 237.397299 118.018221 
L 199.69 118.018221 
z
" clip-path="url(#p203f2792e3)" style="fill: #2a78d6"/>
   </g>
   <g id="patch_19">
    <path d="M 199.69 113.391915 
L 256.186132 113.391915 
L 256.186132 94.886692 
L 199.69 94.886692 
z
" clip-path="url(#p203f2792e3)" style="fill: #2a78d6"/>
   </g>
   <g id="patch_20">
    <path d="M 199.69 90.260387 
L 304.377584 90.260387 
L 304.377584 71.755164 
L 199.69 71.755164 
z
" clip-path="url(#p203f2792e3)" style="fill: #2a78d6"/>
   </g>
   <g id="patch_21">
    <path d="M 199.69 67.128859 
L 616.36619 67.128859 
L 616.36619 48.623636 
L 199.69 48.623636 
z
" clip-path="url(#p203f2792e3)" style="fill: #2a78d6"/>
   </g>
   <g id="patch_22">
    <path d="M 199.69 505.24 
L 199.69 26.88 
" style="fill: none; stroke: #e1e0d9; stroke-width: 0.8; stroke-linejoin: miter; stroke-linecap: square"/>
   </g>
   <g id="patch_23">
    <path d="M 199.69 505.24 
L 637.2 505.24 
" style="fill: none; stroke: #e1e0d9; stroke-width: 0.8; stroke-linejoin: miter; stroke-linecap: square"/>
   </g>
   <g id="text_27">
    <!-- Projects per repository -->
    <g style="fill: #0b0b0b" transform="translate(350.675 20.88) scale(0.12 -0.12)">
     <defs>
      <path id="DejaVuSans-50" d="M 1259 4147 
L 1259 2394 
L 2053 2394 
Q 2494 2394 2734 2622 
Q 2975 2850 2975 3272 
Q 2975 3691 2734 3919 
Q 2494 4147 2053 4147 
L 1259 4147 
z
M 628 4666 
L 2053 4666 
Q 2838 4666 3239 4311 
Q 3641 3956 3641 3272 
Q 3641 2581 3239 2228 
Q 2838 1875 2053 1875 
L 1259 1875 
L 1259 0 
L 628 0 
L 628 4666 
z
" transform="scale(0.015625)"/>
     </defs>
     <use xlink:href="#DejaVuSans-50"/>
     <use xlink:href="#DejaVuSans-72" transform="translate(58.552734 0)"/>
     <use xlink:href="#DejaVuSans-6f" transform="translate(97.416016 0)"/>
     <use xlink:href="#DejaVuSans-6a" transform="translate(158.597656 0)"/>
     <use xlink:href="#DejaVuSans-65" transform="translate(186.380859 0)"/>
     <use xlink:href="#DejaVuSans-63" transform="translate(247.904297 0)"/>
     <use xlink:href="#DejaVuSans-74" transform="translate(302.884766 0)"/>
     <use xlink:href="#DejaVuSans-73" transform="translate(342.09375 0)"/>
     <use xlink:href="#DejaVuSans-20" transform="translate(394.193359 0)"/>
     <use xlink:href="#DejaVuSans-70" transform="translate(425.980469 0)"/>
     <use xlink:href="#DejaVuSans-65" transform="translate(489.457031 0)"/>
     <use xlink:href="#DejaVuSans-72" transform="translate(550.980469 0)"/>
     <use xlink:href="#DejaVuSans-20" transform="translate(592.09375 0)"/>
     <use xlink:href="#DejaVuSans-72" transform="translate(623.880859 0)"/>
     <use xlink:href="#DejaVuSans-65" transform="translate(662.744141 0)"/>
     <use xlink:href="#DejaVuSans-70" transform="translate(724.267578 0)"/>
     <use xlink:href="#DejaVuSans-6f" transform="translate(787.744141 0)"/>
     <use xlink:href="#DejaVuSans-73" transform="translate(848.925781 0)"/>
     <use xlink:href="#DejaVuSans-69" transform="translate(901.025391 0)"/>
     <use xlink:href="#DejaVuSans-74" transform="translate(928.808594 0)"/>
     <use xlink:href="#DejaVuSans-6f" transform="translate(968.017578 0)"/>
     <use xlink:href="#DejaVuSans-72" transform="translate(1029.199219 0)"/>
     <use xlink:href="#DejaVuSans-79" transform="translate(1070.3125 0)"/>
    </g>
   </g>
  </g>
 </g>
 <defs>
  <clipPath id="p203f2792e3">
   <rect x="199.69" y="26.88" width="437.51" height="478.36"/>
  </clipPath>
 </defs>
</svg>
