<?xml version="1.0" encoding="utf-8" standalone="no"?>
<!DOCTYPE svg PUBLIC "-//W3C//DTD SVG 1.1//EN"
  "http://www.w3.org/Graphics/SVG/1.1/DTD/svg11.dtd">
<svg xmlns:xlink="http://www.w3.org/1999/xlink" width="349.2pt" height="469.150925pt" viewBox="0 0 349.2 469.150925" xmlns="http://www.w3.org/2000/svg" version="1.1">
 <metadata>
  <rdf:RDF xmlns:dc="http://purl.org/dc/elements/1.1/" xmlns:cc="http://creativecommons.org/ns#" xmlns:rdf="http://www.w3.org/1999/02/22-rdf-syntax-ns#">
   <cc:Work>
    <dc:type rdf:resource="http://purl.org/dc/dcmitype/StillImage"/>
    <dc:date>2026-07-11T15:27:47.117527</dc:date>
    <dc:format>image/svg+xml</dc:format>
    <dc:creator>
     <cc:Agent>
      <dc:title>Matplotlib v3.10.9, https://matplotlib.org/</dc:title>
     </cc:Agent>
    </dc:creator>
   </cc:Work>
  </rdf:RDF>
 </metadata>
 <defs>
  <style type="text/css">*{stroke-linejoin: round; stroke-linecap: butt}</style>
 </defs>
 <g id="figure_1">
  <g id="patch_1">
   <path d="M 0 469.150925 
L 349.2 469.150925 
L 349.2 0 
L 0 0 
z
" style="fill: #ffffff"/>
  </g>
  <g id="axes_1">
   <g id="patch_2">
    <path d="M 174.600018 36.456338 
C 143.647562 36.456338 113.419594 45.899526 87.971451 63.51902 
C 62.523308 81.138513 43.046293 106.109491 32.153411 135.081886 
L 174.600018 188.638177 
z
" style="fill: #2a78d6; stroke: #ffffff; stroke-width: 2; stroke-linejoin: miter"/>
   </g>
   <g id="patch_3">
    <path d="M 32.15341 135.081881 
C 27.840434 146.553343 24.928924 158.503931 23.482213 170.673697 
C 22.035502 182.843464 22.064166 195.143533 23.567542 207.306427 
L 174.600018 188.638177 
z
" style="fill: #1baf7a; stroke: #ffffff; stroke-width: 2; stroke-linejoin: miter"/>
   </g>
   <g id="patch_4">
    <path d="M 23.567542 207.306427 
C 24.762757 216.976099 26.883842 226.50866 29.901579 235.772804 
C 32.919316 245.036946 36.819782 253.989916 41.549231 262.508334 
L 174.600018 188.638177 
z
" style="fill: #eda100; stroke: #ffffff; stroke-width: 2; stroke-linejoin: miter"/>
   </g>
   <g id="patch_5">
    <path d="M 41.549231 262.508334 
C 44.808023 268.377895 48.45166 274.025377 52.456239 279.413771 
C 56.460819 284.802165 60.817579 289.91967 65.497956 294.732725 
L 174.600018 188.638177 
z
" style="fill: #008300; stroke: #ffffff; stroke-width: 2; stroke-linejoin: miter"/>
   </g>
   <g id="patch_6">
    <path d="M 65.497956 294.732725 
C 69.221987 298.562321 73.145056 302.193177 77.250902 305.610235 
C 81.356747 309.027293 85.639662 312.22581 90.081851 315.192488 
L 174.600018 188.638177 
z
" style="fill: #4a3aa7; stroke: #ffffff; stroke-width: 2; stroke-linejoin: miter"/>
   </g>
   <g id="patch_7">
    <path d="M 90.081851 315.192488 
C 94.209411 317.949042 98.469396 320.50203 102.846452 322.842264 
C 107.223508 325.182498 111.712401 327.307193 116.2971 329.208738 
L 174.600018 188.638177 
z
" style="fill: #e34948; stroke: #ffffff; stroke-width: 2; stroke-linejoin: miter"/>
   </g>
   <g id="patch_8">
    <path d="M 116.2971 329.208738 
C 120.663403 331.019703 125.111751 332.626259 129.627598 334.023163 
C 134.143445 335.420067 138.721892 336.605794 143.34811 337.576518 
L 174.600018 188.638177 
z
" style="fill: #e87ba4; stroke: #ffffff; stroke-width: 2; stroke-linejoin: miter"/>
   </g>
   <g id="patch_9">
    <path d="M 143.34811 337.576518 
C 164.203178 341.952554 185.746727 341.899871 206.580139 337.421862 
C 227.413548 332.943853 247.076001 324.139571 264.290995 311.580608 
C 281.505989 299.021645 295.892743 282.985785 306.517252 264.514093 
C 317.14176 246.042402 323.769037 225.543463 325.96881 204.348073 
C 328.168593 183.152682 325.892208 161.729673 319.287472 141.469834 
C 312.682737 121.209996 301.895726 102.561475 287.626737 86.734921 
C 273.357749 70.908368 255.922399 58.253881 236.452622 49.59298 
C 216.98284 40.932079 195.909276 36.456338 174.600039 36.456338 
L 174.600018 188.638177 
z
" style="fill: #bdbbb2; stroke: #ffffff; stroke-width: 2; stroke-linejoin: miter"/>
   </g>
   <g id="matplotlib.axis_1"/>
   <g id="matplotlib.axis_2"/>
   <g id="text_1">
    <!-- 19.3% -->
    <g style="fill: #0b0b0b" transform="translate(89.269364 88.523902) scale(0.09 -0.09)">
     <defs>
      <path id="DejaVuSans-31" d="M 794 531 
L 1825 531 
L 1825 4091 
L 703 3866 
L 703 4441 
L 1819 4666 
L 2450 4666 
L 2450 531 
L 3481 531 
L 3481 0 
L 794 0 
L 794 531 
z
" transform="scale(0.015625)"/>
      <path id="DejaVuSans-39" d="M 703 97 
L 703 672 
Q 941 559 1184 500 
Q 1428 441 1663 441 
Q 2288 441 2617 861 
Q 2947 1281 2994 2138 
Q 2813 1869 2534 1725 
Q 2256 1581 1919 1581 
Q 1219 1581 811 2004 
Q 403 2428 403 3163 
Q 403 3881 828 4315 
Q 1253 4750 1959 4750 
Q 2769 4750 3195 4129 
Q 3622 3509 3622 2328 
Q 3622 1225 3098 567 
Q 2575 -91 1691 -91 
Q 1453 -91 1209 -44 
Q 966 3 703 97 
z
M 1959 2075 
Q 2384 2075 2632 2365 
Q 2881 2656 2881 3163 
Q 2881 3666 2632 3958 
Q 2384 4250 1959 4250 
Q 1534 4250 1286 3958 
Q 1038 3666 1038 3163 
Q 1038 2656 1286 2365 
Q 1534 2075 1959 2075 
z
" transform="scale(0.015625)"/>
      <path id="DejaVuSans-2e" d="M 684 794 
L 1344 794 
L 1344 0 
L 684 0 
L 684 794 
z
" transform="scale(0.015625)"/>
      <path id="DejaVuSans-33" d="M 2597 2516 
Q 3050 2419 3304 2112 
Q 3559 1806 3559 1356 
Q 3559 666 3084 287 
Q 2609 -91 1734 -91 
Q 1441 -91 1130 -33 
Q 819 25 488 141 
L 488 750 
Q 750 597 1062 519 
Q 1375 441 1716 441 
Q 2309 441 2620 675 
Q 2931 909 2931 1356 
Q 2931 1769 2642 2001 
Q 2353 2234 1838 2234 
L 1294 2234 
L 1294 2753 
L 1863 2753 
Q 2328 2753 2575 2939 
Q 2822 3125 2822 3475 
Q 2822 3834 2567 4026 
Q 2313 4219 1838 4219 
Q 1578 4219 1281 4162 
Q 984 4106 628 3988 
L 628 4550 
Q 988 4650 1302 4700 
Q 1616 4750 1894 4750 
Q 2613 4750 3031 4423 
Q 3450 4097 3450 3541 
Q 3450 3153 3228 2886 
Q 3006 2619 2597 2516 
z
" transform="scale(0.015625)"/>
      <path id="DejaVuSans-25" d="M 4653 2053 
Q 4381 2053 4226 1822 
Q 4072 1591 4072 1178 
Q 4072 772 4226 539 
Q 4381 306 4653 306 
Q 4919 306 5073 539 
Q 5228 772 5228 1178 
Q 5228 1588 5073 1820 
Q 4919 2053 4653 2053 
z
M 4653 2450 
Q 5147 2450 5437 2106 
Q 5728 1763 5728 1178 
Q 5728 594 5436 251 
Q 5144 -91 4653 -91 
Q 4153 -91 3862 251 
Q 3572 594 3572 1178 
Q 3572 1766 3864 2108 
Q 4156 2450 4653 2450 
z
M 1428 4353 
Q 1159 4353 1004 4120 
Q 850 3888 850 3481 
Q 850 3069 1003 2837 
Q 1156 2606 1428 2606 
Q 1700 2606 1854 2837 
Q 2009 3069 2009 3481 
Q 2009 3884 1853 4118 
Q 1697 4353 1428 4353 
z
M 4250 4750 
L 4750 4750 
L 1831 -91 
L 1331 -91 
L 4250 4750 
z
M 1428 4750 
Q 1922 4750 2215 4408 
Q 2509 4066 2509 3481 
Q 2509 2891 2217 2550 
Q 1925 2209 1428 2209 
Q 931 2209 642 2551 
Q 353 2894 353 3481 
Q 353 4063 643 4406 
Q 934 4750 1428 4750 
z
" transform="scale(0.015625)"/>
     </defs>
     <use xlink:href="#DejaVuSans-31"/>
     <use xlink:href="#DejaVuSans-39" transform="translate(63.623047 0)"/>
     <use xlink:href="#DejaVuSans-2e" transform="translate(127.246094 0)"/>
     <use xlink:href="#DejaVuSans-33" transform="translate(159.033203 0)"/>
     <use xlink:href="#DejaVuSans-25" transform="translate(222.65625 0)"/>
    </g>
   </g>
   <g id="text_2">
    <!-- 7.7% -->
    <g style="fill: #0b0b0b" transform="translate(39.251312 176.390741) scale(0.09 -0.09)">
     <defs>
      <path id="DejaVuSans-37" d="M 525 4666 
L 3525 4666 
L 3525 4397 
L 1831 0 
L 1172 0 
L 2766 4134 
L 525 4134 
L 525 4666 
z
" transform="scale(0.015625)"/>
     </defs>
     <use xlink:href="#DejaVuSans-37"/>
     <use xlink:href="#DejaVuSans-2e" transform="translate(63.623047 0)"/>
     <use xlink:href="#DejaVuSans-37" transform="translate(95.410156 0)"/>
     <use xlink:href="#DejaVuSans-25" transform="translate(159.033203 0)"/>
    </g>
   </g>
   <g id="text_3">
    <!-- 6.1% -->
    <g style="fill: #0b0b0b" transform="translate(44.515205 229.772066) scale(0.09 -0.09)">
     <defs>
      <path id="DejaVuSans-36" d="M 2113 2584 
Q 1688 2584 1439 2293 
Q 1191 2003 1191 1497 
Q 1191 994 1439 701 
Q 1688 409 2113 409 
Q 2538 409 2786 701 
Q 3034 994 3034 1497 
Q 3034 2003 2786 2293 
Q 2538 2584 2113 2584 
z
M 3366 4563 
L 3366 3988 
Q 3128 4100 2886 4159 
Q 2644 4219 2406 4219 
Q 1781 4219 1451 3797 
Q 1122 3375 1075 2522 
Q 1259 2794 1537 2939 
Q 1816 3084 2150 3084 
Q 2853 3084 3261 2657 
Q 3669 2231 3669 1497 
Q 3669 778 3244 343 
Q 2819 -91 2113 -91 
Q 1303 -91 875 529 
Q 447 1150 447 2328 
Q 447 3434 972 4092 
Q 1497 4750 2381 4750 
Q 2619 4750 2861 4703 
Q 3103 4656 3366 4563 
z
" transform="scale(0.015625)"/>
     </defs>
     <use xlink:href="#DejaVuSans-36"/>
     <use xlink:href="#DejaVuSans-2e" transform="translate(63.623047 0)"/>
     <use xlink:href="#DejaVuSans-31" transform="translate(95.410156 0)"/>
     <use xlink:href="#DejaVuSans-25" transform="translate(159.033203 0)"/>
    </g>
   </g>
   <g id="text_4">
    <!-- 4.2% -->
    <g style="fill: #0b0b0b" transform="translate(63.010028 265.557631) scale(0.09 -0.09)">
     <defs>
      <path id="DejaVuSans-34" d="M 2419 4116 
L 825 1625 
L 2419 1625 
L 2419 4116 
z
M 2253 4666 
L 3047 4666 
L 3047 1625 
L 3713 1625 
L 3713 1100 
L 3047 1100 
L 3047 0 
L 2419 0 
L 2419 1100 
L 313 1100 
L 313 1709 
L 2253 4666 
z
" transform="scale(0.015625)"/>
      <path id="DejaVuSans-32" d="M 1228 531 
L 3431 531 
L 3431 0 
L 469 0 
L 469 531 
Q 828 903 1448 1529 
Q 2069 2156 2228 2338 
Q 2531 2678 2651 2914 
Q 2772 3150 2772 3378 
Q 2772 3750 2511 3984 
Q 2250 4219 1831 4219 
Q 1534 4219 1204 4116 
Q 875 4013 500 3803 
L 500 4441 
Q 881 4594 1212 4672 
Q 1544 4750 1819 4750 
Q 2544 4750 2975 4387 
Q 3406 4025 3406 3419 
Q 3406 3131 3298 2873 
Q 3191 2616 2906 2266 
Q 2828 2175 2409 1742 
Q 1991 1309 1228 531 
z
" transform="scale(0.015625)"/>
     </defs>
     <use xlink:href="#DejaVuSans-34"/>
     <use xlink:href="#DejaVuSans-2e" transform="translate(63.623047 0)"/>
     <use xlink:href="#DejaVuSans-32" transform="translate(95.410156 0)"/>
     <use xlink:href="#DejaVuSans-25" transform="translate(159.033203 0)"/>
    </g>
   </g>
   <g id="text_5">
    <!-- 3.4% -->
    <g style="fill: #0b0b0b" transform="translate(83.341633 287.0387) scale(0.09 -0.09)">
     <use xlink:href="#DejaVuSans-33"/>
     <use xlink:href="#DejaVuSans-2e" transform="translate(63.623047 0)"/>
     <use xlink:href="#DejaVuSans-34" transform="translate(95.410156 0)"/>
     <use xlink:href="#DejaVuSans-25" transform="translate(159.033203 0)"/>
    </g>
   </g>
   <g id="text_6">
    <!-- 3.1% -->
    <g style="fill: #0b0b0b" transform="translate(104.329984 301.168969) scale(0.09 -0.09)">
     <use xlink:href="#DejaVuSans-33"/>
     <use xlink:href="#DejaVuSans-2e" transform="translate(63.623047 0)"/>
     <use xlink:href="#DejaVuSans-31" transform="translate(95.410156 0)"/>
     <use xlink:href="#DejaVuSans-25" transform="translate(159.033203 0)"/>
    </g>
   </g>
   <g id="text_7">
    <!-- 3.0% -->
    <g style="fill: #0b0b0b" transform="translate(126.290525 310.337303) scale(0.09 -0.09)">
     <defs>
      <path id="DejaVuSans-30" d="M 2034 4250 
Q 1547 4250 1301 3770 
Q 1056 3291 1056 2328 
Q 1056 1369 1301 889 
Q 1547 409 2034 409 
Q 2525 409 2770 889 
Q 3016 1369 3016 2328 
Q 3016 3291 2770 3770 
Q 2525 4250 2034 4250 
z
M 2034 4750 
Q 2819 4750 3233 4129 
Q 3647 3509 3647 2328 
Q 3647 1150 3233 529 
Q 2819 -91 2034 -91 
Q 1250 -91 836 529 
Q 422 1150 422 2328 
Q 422 3509 836 4129 
Q 1250 4750 2034 4750 
z
" transform="scale(0.015625)"/>
     </defs>
     <use xlink:href="#DejaVuSans-33"/>
     <use xlink:href="#DejaVuSans-2e" transform="translate(63.623047 0)"/>
     <use xlink:href="#DejaVuSans-30" transform="translate(95.410156 0)"/>
     <use xlink:href="#DejaVuSans-25" transform="translate(159.033203 0)"/>
    </g>
   </g>
   <g id="text_8">
    <!-- 53.3% -->
    <g style="fill: #0b0b0b" transform="translate(284.4272 204.00367) scale(0.09 -0.09)">
     <defs>
      <path id="DejaVuSans-35" d="M 691 4666 
L 3169 4666 
L 3169 4134 
L 1269 4134 
L 1269 2991 
Q 1406 3038 1543 3061 
Q 1681 3084 1819 3084 
Q 2600 3084 3056 2656 
Q 3513 2228 3513 1497 
Q 3513 744 3044 326 
Q 2575 -91 1722 -91 
Q 1428 -91 1123 -41 
Q 819 9 494 109 
L 494 744 
Q 775 591 1075 516 
Q 1375 441 1709 441 
Q 2250 441 2565 725 
Q 2881 1009 2881 1497 
Q 2881 1984 2565 2268 
Q 2250 2553 1709 2553 
Q 1456 2553 1204 2497 
Q 953 2441 691 2322 
L 691 4666 
z
" transform="scale(0.015625)"/>
     </defs>
     <use xlink:href="#DejaVuSans-35"/>
     <use xlink:href="#DejaVuSans-33" transform="translate(63.623047 0)"/>
     <use xlink:href="#DejaVuSans-2e" transform="translate(127.246094 0)"/>
     <use xlink:href="#DejaVuSans-33" transform="translate(159.033203 0)"/>
     <use xlink:href="#DejaVuSans-25" transform="translate(222.65625 0)"/>
    </g>
   </g>
   <g id="text_9">
    <!-- Primary classes - open-data-uni-halle -->
    <g style="fill: #0b0b0b" transform="translate(63.057187 16.318125) scale(0.12 -0.12)">
     <defs>
      <path id="DejaVuSans-50" d="M 1259 4147 
L 1259 2394 
L 2053 2394 
Q 2494 2394 2734 2622 
Q 2975 2850 2975 3272 
Q 2975 3691 2734 3919 
Q 2494 4147 2053 4147 
L 1259 4147 
z
M 628 4666 
L 2053 4666 
Q 2838 4666 3239 4311 
Q 3641 3956 3641 3272 
Q 3641 2581 3239 2228 
Q 2838 1875 2053 1875 
L 1259 1875 
L 1259 0 
L 628 0 
L 628 4666 
z
" transform="scale(0.015625)"/>
      <path id="DejaVuSans-72" d="M 2631 2963 
Q 2534 3019 2420 3045 
Q 2306 3072 2169 3072 
Q 1681 3072 1420 2755 
Q 1159 2438 1159 1844 
L 1159 0 
L 581 0 
L 581 3500 
L 1159 3500 
L 1159 2956 
Q 1341 3275 1631 3429 
Q 1922 3584 2338 3584 
Q 2397 3584 2469 3576 
Q 2541 3569 2628 3553 
L 2631 2963 
z
" transform="scale(0.015625)"/>
      <path id="DejaVuSans-69" d="M 603 3500 
L 1178 3500 
L 1178 0 
L 603 0 
L 603 3500 
z
M 603 4863 
L 1178 4863 
L 1178 4134 
L 603 4134 
L 603 4863 
z
" transform="scale(0.015625)"/>
      <path id="DejaVuSans-6d" d="M 3328 2828 
Q 3544 3216 3844 3400 
Q 4144 3584 4550 3584 
Q 5097 3584 5394 3201 
Q 5691 2819 5691 2113 
L 5691 0 
L 5113 0 
L 5113 2094 
Q 5113 2597 4934 2840 
Q 4756 3084 4391 3084 
Q 3944 3084 3684 2787 
Q 3425 2491 3425 1978 
L 3425 0 
L 2847 0 
L 2847 2094 
Q 2847 2600 2669 2842 
Q 2491 3084 2119 3084 
Q 1678 3084 1418 2786 
Q 1159 2488 1159 1978 
L 1159 0 
L 581 0 
L 581 3500 
L 1159 3500 
L 1159 2956 
Q 1356 3278 1631 3431 
Q 1906 3584 2284 3584 
Q 2666 3584 2933 3390 
Q 3200 3197 3328 2828 
z
" transform="scale(0.015625)"/>
      <path id="DejaVuSans-61" d="M 2194 1759 
Q 1497 1759 1228 1600 
Q 959 1441 959 1056 
Q 959 750 1161 570 
Q 1363 391 1709 391 
Q 2188 391 2477 730 
Q 2766 1069 2766 1631 
L 2766 1759 
L 2194 1759 
z
M 3341 1997 
L 3341 0 
L 2766 0 
L 2766 531 
Q 2569 213 2275 61 
Q 1981 -91 1556 -91 
Q 1019 -91 701 211 
Q 384 513 384 1019 
Q 384 1609 779 1909 
Q 1175 2209 1959 2209 
L 2766 2209 
L 2766 2266 
Q 2766 2663 2505 2880 
Q 2244 3097 1772 3097 
Q 1472 3097 1187 3025 
Q 903 2953 641 2809 
L 641 3341 
Q 956 3463 1253 3523 
Q 1550 3584 1831 3584 
Q 2591 3584 2966 3190 
Q 3341 2797 3341 1997 
z
" transform="scale(0.015625)"/>
      <path id="DejaVuSans-79" d="M 2059 -325 
Q 1816 -950 1584 -1140 
Q 1353 -1331 966 -1331 
L 506 -1331 
L 506 -850 
L 844 -850 
Q 1081 -850 1212 -737 
Q 1344 -625 1503 -206 
L 1606 56 
L 191 3500 
L 800 3500 
L 1894 763 
L 2988 3500 
L 3597 3500 
L 2059 -325 
z
" transform="scale(0.015625)"/>
      <path id="DejaVuSans-20" transform="scale(0.015625)"/>
      <path id="DejaVuSans-63" d="M 3122 3366 
L 3122 2828 
Q 2878 2963 2633 3030 
Q 2388 3097 2138 3097 
Q 1578 3097 1268 2742 
Q 959 2388 959 1747 
Q 959 1106 1268 751 
Q 1578 397 2138 397 
Q 2388 397 2633 464 
Q 2878 531 3122 666 
L 3122 134 
Q 2881 22 2623 -34 
Q 2366 -91 2075 -91 
Q 1284 -91 818 406 
Q 353 903 353 1747 
Q 353 2603 823 3093 
Q 1294 3584 2113 3584 
Q 2378 3584 2631 3529 
Q 2884 3475 3122 3366 
z
" transform="scale(0.015625)"/>
      <path id="DejaVuSans-6c" d="M 603 4863 
L 1178 4863 
L 1178 0 
L 603 0 
L 603 4863 
z
" transform="scale(0.015625)"/>
      <path id="DejaVuSans-73" d="M 2834 3397 
L 2834 2853 
Q 2591 2978 2328 3040 
Q 2066 3103 1784 3103 
Q 1356 3103 1142 2972 
Q 928 2841 928 2578 
Q 928 2378 1081 2264 
Q 1234 2150 1697 2047 
L 1894 2003 
Q 2506 1872 2764 1633 
Q 3022 1394 3022 966 
Q 3022 478 2636 193 
Q 2250 -91 1575 -91 
Q 1294 -91 989 -36 
Q 684 19 347 128 
L 347 722 
Q 666 556 975 473 
Q 1284 391 1588 391 
Q 1994 391 2212 530 
Q 2431 669 2431 922 
Q 2431 1156 2273 1281 
Q 2116 1406 1581 1522 
L 1381 1569 
Q 847 1681 609 1914 
Q 372 2147 372 2553 
Q 372 3047 722 3315 
Q 1072 3584 1716 3584 
Q 2034 3584 2315 3537 
Q 2597 3491 2834 3397 
z
" transform="scale(0.015625)"/>
      <path id="DejaVuSans-65" d="M 3597 1894 
L 3597 1613 
L 953 1613 
Q 991 1019 1311 708 
Q 1631 397 2203 397 
Q 2534 397 2845 478 
Q 3156 559 3463 722 
L 3463 178 
Q 3153 47 2828 -22 
Q 2503 -91 2169 -91 
Q 1331 -91 842 396 
Q 353 884 353 1716 
Q 353 2575 817 3079 
Q 1281 3584 2069 3584 
Q 2775 3584 3186 3129 
Q 3597 2675 3597 1894 
z
M 3022 2063 
Q 3016 2534 2758 2815 
Q 2500 3097 2075 3097 
Q 1594 3097 1305 2825 
Q 1016 2553 972 2059 
L 3022 2063 
z
" transform="scale(0.015625)"/>
      <path id="DejaVuSans-2d" d="M 313 2009 
L 1997 2009 
L 1997 1497 
L 313 1497 
L 313 2009 
z
" transform="scale(0.015625)"/>
      <path id="DejaVuSans-6f" d="M 1959 3097 
Q 1497 3097 1228 2736 
Q 959 2375 959 1747 
Q 959 1119 1226 758 
Q 1494 397 1959 397 
Q 2419 397 2687 759 
Q 2956 1122 2956 1747 
Q 2956 2369 2687 2733 
Q 2419 3097 1959 3097 
z
M 1959 3584 
Q 2709 3584 3137 3096 
Q 3566 2609 3566 1747 
Q 3566 888 3137 398 
Q 2709 -91 1959 -91 
Q 1206 -91 779 398 
Q 353 888 353 1747 
Q 353 2609 779 3096 
Q 1206 3584 1959 3584 
z
" transform="scale(0.015625)"/>
      <path id="DejaVuSans-70" d="M 1159 525 
L 1159 -1331 
L 581 -1331 
L 581 3500 
L 1159 3500 
L 1159 2969 
Q 1341 3281 1617 3432 
Q 1894 3584 2278 3584 
Q 2916 3584 3314 3078 
Q 3713 2572 3713 1747 
Q 3713 922 3314 415 
Q 2916 -91 2278 -91 
Q 1894 -91 1617 61 
Q 1341 213 1159 525 
z
M 3116 1747 
Q 3116 2381 2855 2742 
Q 2594 3103 2138 3103 
Q 1681 3103 1420 2742 
Q 1159 2381 1159 1747 
Q 1159 1113 1420 752 
Q 1681 391 2138 391 
Q 2594 391 2855 752 
Q 3116 1113 3116 1747 
z
" transform="scale(0.015625)"/>
      <path id="DejaVuSans-6e" d="M 3513 2113 
L 3513 0 
L 2938 0 
L 2938 2094 
Q 2938 2591 2744 2837 
Q 2550 3084 2163 3084 
Q 1697 3084 1428 2787 
Q 1159 2491 1159 1978 
L 1159 0 
L 581 0 
L 581 3500 
L 1159 3500 
L 1159 2956 
Q 1366 3272 1645 3428 
Q 1925 3584 2291 3584 
Q 2894 3584 3203 3211 
Q 3513 2838 3513 2113 
z
" transform="scale(0.015625)"/>
      <path id="DejaVuSans-64" d="M 2906 2969 
L 2906 4863 
L 3481 4863 
L 3481 0 
L 2906 0 
L 2906 525 
Q 2725 213 2448 61 
Q 2172 -91 1784 -91 
Q 1150 -91 751 415 
Q 353 922 353 1747 
Q 353 2572 751 3078 
Q 1150 3584 1784 3584 
Q 2172 3584 2448 3432 
Q 2725 3281 2906 2969 
z
M 947 1747 
Q 947 1113 1208 752 
Q 1469 391 1925 391 
Q 2381 391 2643 752 
Q 2906 1113 2906 1747 
Q 2906 2381 2643 2742 
Q 2381 3103 1925 3103 
Q 1469 3103 1208 2742 
Q 947 2381 947 1747 
z
" transform="scale(0.015625)"/>
      <path id="DejaVuSans-74" d="M 1172 4494 
L 1172 3500 
L 2356 3500 
L 2356 3053 
L 1172 3053 
L 1172 1153 
Q 1172 725 1289 603 
Q 1406 481 1766 481 
L 2356 481 
L 2356 0 
L 1766 0 
Q 1100 0 847 248 
Q 594 497 594 1153 
L 594 3053 
L 172 3053 
L 172 3500 
L 594 3500 
L 594 4494 
L 1172 4494 
z
" transform="scale(0.015625)"/>
      <path id="DejaVuSans-75" d="M 544 1381 
L 544 3500 
L 1119 3500 
L 1119 1403 
Q 1119 906 1312 657 
Q 1506 409 1894 409 
Q 2359 409 2629 706 
Q 2900 1003 2900 1516 
L 2900 3500 
L 3475 3500 
L 3475 0 
L 2900 0 
L 2900 538 
Q 2691 219 2414 64 
Q 2138 -91 1772 -91 
Q 1169 -91 856 284 
Q 544 659 544 1381 
z
M 1991 3584 
L 1991 3584 
z
" transform="scale(0.015625)"/>
      <path id="DejaVuSans-68" d="M 3513 2113 
L 3513 0 
L 2938 0 
L 2938 2094 
Q 2938 2591 2744 2837 
Q 2550 3084 2163 3084 
Q 1697 3084 1428 2787 
Q 1159 2491 1159 1978 
L 1159 0 
L 581 0 
L 581 4863 
L 1159 4863 
L 1159 2956 
Q 1366 3272 1645 3428 
Q 1925 3584 2291 3584 
Q 2894 3584 3203 3211 
Q 3513 2838 3513 2113 
z
" transform="scale(0.015625)"/>
     </defs>
     <use xlink:href="#DejaVuSans-50"/>
     <use xlink:href="#DejaVuSans-72" transform="translate(58.552734 0)"/>
     <use xlink:href="#DejaVuSans-69" transform="translate(99.666016 0)"/>
     <use xlink:href="#DejaVuSans-6d" transform="translate(127.449219 0)"/>
     <use xlink:href="#DejaVuSans-61" transform="translate(224.861328 0)"/>
     <use xlink:href="#DejaVuSans-72" transform="translate(286.140625 0)"/>
     <use xlink:href="#DejaVuSans-79" transform="translate(327.253906 0)"/>
     <use xlink:href="#DejaVuSans-20" transform="translate(386.433594 0)"/>
     <use xlink:href="#DejaVuSans-63" transform="translate(418.220703 0)"/>
     <use xlink:href="#DejaVuSans-6c" transform="translate(473.201172 0)"/>
     <use xlink:href="#DejaVuSans-61" transform="translate(500.984375 0)"/>
     <use xlink:href="#DejaVuSans-73" transform="translate(562.263672 0)"/>
     <use xlink:href="#DejaVuSans-73" transform="translate(614.363281 0)"/>
     <use xlink:href="#DejaVuSans-65" transform="translate(666.462891 0)"/>
     <use xlink:href="#DejaVuSans-73" transform="translate(727.986328 0)"/>
     <use xlink:href="#DejaVuSans-20" transform="translate(780.085938 0)"/>
     <use xlink:href="#DejaVuSans-2d" transform="translate(811.873047 0)"/>
     <use xlink:href="#DejaVuSans-20" transform="translate(847.957031 0)"/>
     <use xlink:href="#DejaVuSans-6f" transform="translate(879.744141 0)"/>
     <use xlink:href="#DejaVuSans-70" transform="translate(940.925781 0)"/>
     <use xlink:href="#DejaVuSans-65" transform="translate(1004.402344 0)"/>
     <use xlink:href="#DejaVuSans-6e" transform="translate(1065.925781 0)"/>
     <use xlink:href="#DejaVuSans-2d" transform="translate(1129.304688 0)"/>
     <use xlink:href="#DejaVuSans-64" transform="translate(1165.388672 0)"/>
     <use xlink:href="#DejaVuSans-61" transform="translate(1228.865234 0)"/>
     <use xlink:href="#DejaVuSans-74" transform="translate(1290.144531 0)"/>
     <use xlink:href="#DejaVuSans-61" transform="translate(1329.353516 0)"/>
     <use xlink:href="#DejaVuSans-2d" transform="translate(1390.632812 0)"/>
     <use xlink:href="#DejaVuSans-75" transform="translate(1426.716797 0)"/>
     <use xlink:href="#DejaVuSans-6e" transform="translate(1490.095703 0)"/>
     <use xlink:href="#DejaVuSans-69" transform="translate(1553.474609 0)"/>
     <use xlink:href="#DejaVuSans-2d" transform="translate(1581.257812 0)"/>
     <use xlink:href="#DejaVuSans-68" transform="translate(1617.341797 0)"/>
     <use xlink:href="#DejaVuSans-61" transform="translate(1680.720703 0)"/>
     <use xlink:href="#DejaVuSans-6c" transform="translate(1742 0)"/>
     <use xlink:href="#DejaVuSans-6c" transform="translate(1769.783203 0)"/>
     <use xlink:href="#DejaVuSans-65" transform="translate(1797.566406 0)"/>
    </g>
   </g>
   <g id="legend_1">
    <g id="patch_10">
     <path d="M 91.055 374.889675 
L 107.055 374.889675 
L 107.055 369.289675 
L 91.055 369.289675 
z
" style="fill: #2a78d6; stroke: #ffffff; stroke-width: 2; stroke-linejoin: miter"/>
    </g>
    <g id="text_10">
     <!-- C15 - 15 - Manufacture of leather… -->
     <g style="fill: #0b0b0b" transform="translate(113.455 374.889675) scale(0.08 -0.08)">
      <defs>
       <path id="DejaVuSans-43" d="M 4122 4306 
L 4122 3641 
Q 3803 3938 3442 4084 
Q 3081 4231 2675 4231 
Q 1875 4231 1450 3742 
Q 1025 3253 1025 2328 
Q 1025 1406 1450 917 
Q 1875 428 2675 428 
Q 3081 428 3442 575 
Q 3803 722 4122 1019 
L 4122 359 
Q 3791 134 3420 21 
Q 3050 -91 2638 -91 
Q 1578 -91 968 557 
Q 359 1206 359 2328 
Q 359 3453 968 4101 
Q 1578 4750 2638 4750 
Q 3056 4750 3426 4639 
Q 3797 4528 4122 4306 
z
" transform="scale(0.015625)"/>
       <path id="DejaVuSans-4d" d="M 628 4666 
L 1569 4666 
L 2759 1491 
L 3956 4666 
L 4897 4666 
L 4897 0 
L 4281 0 
L 4281 4097 
L 3078 897 
L 2444 897 
L 1241 4097 
L 1241 0 
L 628 0 
L 628 4666 
z
" transform="scale(0.015625)"/>
       <path id="DejaVuSans-66" d="M 2375 4863 
L 2375 4384 
L 1825 4384 
Q 1516 4384 1395 4259 
Q 1275 4134 1275 3809 
L 1275 3500 
L 2222 3500 
L 2222 3053 
L 1275 3053 
L 1275 0 
L 697 0 
L 697 3053 
L 147 3053 
L 147 3500 
L 697 3500 
L 697 3744 
Q 697 4328 969 4595 
Q 1241 4863 1831 4863 
L 2375 4863 
z
" transform="scale(0.015625)"/>
       <path id="DejaVuSans-2026" d="M 2869 794 
L 3531 794 
L 3531 0 
L 2869 0 
L 2869 794 
z
M 4997 794 
L 5663 794 
L 5663 0 
L 4997 0 
L 4997 794 
z
M 738 794 
L 1403 794 
L 1403 0 
L 738 0 
L 738 794 
z
" transform="scale(0.015625)"/>
      </defs>
      <use xlink:href="#DejaVuSans-43"/>
      <use xlink:href="#DejaVuSans-31" transform="translate(69.824219 0)"/>
      <use xlink:href="#DejaVuSans-35" transform="translate(133.447266 0)"/>
      <use xlink:href="#DejaVuSans-20" transform="translate(197.070312 0)"/>
      <use xlink:href="#DejaVuSans-2d" transform="translate(228.857422 0)"/>
      <use xlink:href="#DejaVuSans-20" transform="translate(264.941406 0)"/>
      <use xlink:href="#DejaVuSans-31" transform="translate(296.728516 0)"/>
      <use xlink:href="#DejaVuSans-35" transform="translate(360.351562 0)"/>
      <use xlink:href="#DejaVuSans-20" transform="translate(423.974609 0)"/>
      <use xlink:href="#DejaVuSans-2d" transform="translate(455.761719 0)"/>
      <use xlink:href="#DejaVuSans-20" transform="translate(491.845703 0)"/>
      <use xlink:href="#DejaVuSans-4d" transform="translate(523.632812 0)"/>
      <use xlink:href="#DejaVuSans-61" transform="translate(609.912109 0)"/>
      <use xlink:href="#DejaVuSans-6e" transform="translate(671.191406 0)"/>
      <use xlink:href="#DejaVuSans-75" transform="translate(734.570312 0)"/>
      <use xlink:href="#DejaVuSans-66" transform="translate(797.949219 0)"/>
      <use xlink:href="#DejaVuSans-61" transform="translate(833.154297 0)"/>
      <use xlink:href="#DejaVuSans-63" transform="translate(894.433594 0)"/>
      <use xlink:href="#DejaVuSans-74" transform="translate(949.414062 0)"/>
      <use xlink:href="#DejaVuSans-75" transform="translate(988.623047 0)"/>
      <use xlink:href="#DejaVuSans-72" transform="translate(1052.001953 0)"/>
      <use xlink:href="#DejaVuSans-65" transform="translate(1090.865234 0)"/>
      <use xlink:href="#DejaVuSans-20" transform="translate(1152.388672 0)"/>
      <use xlink:href="#DejaVuSans-6f" transform="translate(1184.175781 0)"/>
      <use xlink:href="#DejaVuSans-66" transform="translate(1245.357422 0)"/>
      <use xlink:href="#DejaVuSans-20" transform="translate(1280.5625 0)"/>
      <use xlink:href="#DejaVuSans-6c" transform="translate(1312.349609 0)"/>
      <use xlink:href="#DejaVuSans-65" transform="translate(1340.132812 0)"/>
      <use xlink:href="#DejaVuSans-61" transform="translate(1401.65625 0)"/>
      <use xlink:href="#DejaVuSans-74" transform="translate(1462.935547 0)"/>
      <use xlink:href="#DejaVuSans-68" transform="translate(1502.144531 0)"/>
      <use xlink:href="#DejaVuSans-65" transform="translate(1565.523438 0)"/>
      <use xlink:href="#DejaVuSans-72" transform="translate(1627.046875 0)"/>
      <use xlink:href="#DejaVuSans-2026" transform="translate(1668.160156 0)"/>
     </g>
    </g>
    <g id="patch_11">
     <path d="M 91.055 386.632175 
L 107.055 386.632175 
L 107.055 381.032175 
L 91.055 381.032175 
z
" style="fill: #1baf7a; stroke: #ffffff; stroke-width: 2; stroke-linejoin: miter"/>
    </g>
    <g id="text_11">
     <!-- C31 - 31 - Manufacture of furnitu… -->
     <g style="fill: #0b0b0b" transform="translate(113.455 386.632175) scale(0.08 -0.08)">
      <use xlink:href="#DejaVuSans-43"/>
      <use xlink:href="#DejaVuSans-33" transform="translate(69.824219 0)"/>
      <use xlink:href="#DejaVuSans-31" transform="translate(133.447266 0)"/>
      <use xlink:href="#DejaVuSans-20" transform="translate(197.070312 0)"/>
      <use xlink:href="#DejaVuSans-2d" transform="translate(228.857422 0)"/>
      <use xlink:href="#DejaVuSans-20" transform="translate(264.941406 0)"/>
      <use xlink:href="#DejaVuSans-33" transform="translate(296.728516 0)"/>
      <use xlink:href="#DejaVuSans-31" transform="translate(360.351562 0)"/>
      <use xlink:href="#DejaVuSans-20" transform="translate(423.974609 0)"/>
      <use xlink:href="#DejaVuSans-2d" transform="translate(455.761719 0)"/>
      <use xlink:href="#DejaVuSans-20" transform="translate(491.845703 0)"/>
      <use xlink:href="#DejaVuSans-4d" transform="translate(523.632812 0)"/>
      <use xlink:href="#DejaVuSans-61" transform="translate(609.912109 0)"/>
      <use xlink:href="#DejaVuSans-6e" transform="translate(671.191406 0)"/>
      <use xlink:href="#DejaVuSans-75" transform="translate(734.570312 0)"/>
      <use xlink:href="#DejaVuSans-66" transform="translate(797.949219 0)"/>
      <use xlink:href="#DejaVuSans-61" transform="translate(833.154297 0)"/>
      <use xlink:href="#DejaVuSans-63" transform="translate(894.433594 0)"/>
      <use xlink:href="#DejaVuSans-74" transform="translate(949.414062 0)"/>
      <use xlink:href="#DejaVuSans-75" transform="translate(988.623047 0)"/>
      <use xlink:href="#DejaVuSans-72" transform="translate(1052.001953 0)"/>
      <use xlink:href="#DejaVuSans-65" transform="translate(1090.865234 0)"/>
      <use xlink:href="#DejaVuSans-20" transform="translate(1152.388672 0)"/>
      <use xlink:href="#DejaVuSans-6f" transform="translate(1184.175781 0)"/>
      <use xlink:href="#DejaVuSans-66" transform="translate(1245.357422 0)"/>
      <use xlink:href="#DejaVuSans-20" transform="translate(1280.5625 0)"/>
      <use xlink:href="#DejaVuSans-66" transform="translate(1312.349609 0)"/>
      <use xlink:href="#DejaVuSans-75" transform="translate(1347.554688 0)"/>
      <use xlink:href="#DejaVuSans-72" transform="translate(1410.933594 0)"/>
      <use xlink:href="#DejaVuSans-6e" transform="translate(1450.296875 0)"/>
      <use xlink:href="#DejaVuSans-69" transform="translate(1513.675781 0)"/>
      <use xlink:href="#DejaVuSans-74" transform="translate(1541.458984 0)"/>
      <use xlink:href="#DejaVuSans-75" transform="translate(1580.667969 0)"/>
      <use xlink:href="#DejaVuSans-2026" transform="translate(1644.046875 0)"/>
     </g>
    </g>
    <g id="patch_12">
     <path d="M 91.055 398.374675 
L 107.055 398.374675 
L 107.055 392.774675 
L 91.055 392.774675 
z
" style="fill: #eda100; stroke: #ffffff; stroke-width: 2; stroke-linejoin: miter"/>
    </g>
    <g id="text_12">
     <!-- C21 - 21 - Manufacture of basic p… -->
     <g style="fill: #0b0b0b" transform="translate(113.455 398.374675) scale(0.08 -0.08)">
      <defs>
       <path id="DejaVuSans-62" d="M 3116 1747 
Q 3116 2381 2855 2742 
Q 2594 3103 2138 3103 
Q 1681 3103 1420 2742 
Q 1159 2381 1159 1747 
Q 1159 1113 1420 752 
Q 1681 391 2138 391 
Q 2594 391 2855 752 
Q 3116 1113 3116 1747 
z
M 1159 2969 
Q 1341 3281 1617 3432 
Q 1894 3584 2278 3584 
Q 2916 3584 3314 3078 
Q 3713 2572 3713 1747 
Q 3713 922 3314 415 
Q 2916 -91 2278 -91 
Q 1894 -91 1617 61 
Q 1341 213 1159 525 
L 1159 0 
L 581 0 
L 581 4863 
L 1159 4863 
L 1159 2969 
z
" transform="scale(0.015625)"/>
      </defs>
      <use xlink:href="#DejaVuSans-43"/>
      <use xlink:href="#DejaVuSans-32" transform="translate(69.824219 0)"/>
      <use xlink:href="#DejaVuSans-31" transform="translate(133.447266 0)"/>
      <use xlink:href="#DejaVuSans-20" transform="translate(197.070312 0)"/>
      <use xlink:href="#DejaVuSans-2d" transform="translate(228.857422 0)"/>
      <use xlink:href="#DejaVuSans-20" transform="translate(264.941406 0)"/>
      <use xlink:href="#DejaVuSans-32" transform="translate(296.728516 0)"/>
      <use xlink:href="#DejaVuSans-31" transform="translate(360.351562 0)"/>
      <use xlink:href="#DejaVuSans-20" transform="translate(423.974609 0)"/>
      <use xlink:href="#DejaVuSans-2d" transform="translate(455.761719 0)"/>
      <use xlink:href="#DejaVuSans-20" transform="translate(491.845703 0)"/>
      <use xlink:href="#DejaVuSans-4d" transform="translate(523.632812 0)"/>
      <use xlink:href="#DejaVuSans-61" transform="translate(609.912109 0)"/>
      <use xlink:href="#DejaVuSans-6e" transform="translate(671.191406 0)"/>
      <use xlink:href="#DejaVuSans-75" transform="translate(734.570312 0)"/>
      <use xlink:href="#DejaVuSans-66" transform="translate(797.949219 0)"/>
      <use xlink:href="#DejaVuSans-61" transform="translate(833.154297 0)"/>
      <use xlink:href="#DejaVuSans-63" transform="translate(894.433594 0)"/>
      <use xlink:href="#DejaVuSans-74" transform="translate(949.414062 0)"/>
      <use xlink:href="#DejaVuSans-75" transform="translate(988.623047 0)"/>
      <use xlink:href="#DejaVuSans-72" transform="translate(1052.001953 0)"/>
      <use xlink:href="#DejaVuSans-65" transform="translate(1090.865234 0)"/>
      <use xlink:href="#DejaVuSans-20" transform="translate(1152.388672 0)"/>
      <use xlink:href="#DejaVuSans-6f" transform="translate(1184.175781 0)"/>
      <use xlink:href="#DejaVuSans-66" transform="translate(1245.357422 0)"/>
      <use xlink:href="#DejaVuSans-20" transform="translate(1280.5625 0)"/>
      <use xlink:href="#DejaVuSans-62" transform="translate(1312.349609 0)"/>
      <use xlink:href="#DejaVuSans-61" transform="translate(1375.826172 0)"/>
      <use xlink:href="#DejaVuSans-73" transform="translate(1437.105469 0)"/>
      <use xlink:href="#DejaVuSans-69" transform="translate(1489.205078 0)"/>
      <use xlink:href="#DejaVuSans-63" transform="translate(1516.988281 0)"/>
      <use xlink:href="#DejaVuSans-20" transform="translate(1571.96875 0)"/>
      <use xlink:href="#DejaVuSans-70" transform="translate(1603.755859 0)"/>
      <use xlink:href="#DejaVuSans-2026" transform="translate(1667.232422 0)"/>
     </g>
    </g>
    <g id="patch_13">
     <path d="M 91.055 410.117175 
L 107.055 410.117175 
L 107.055 404.517175 
L 91.055 404.517175 
z
" style="fill: #008300; stroke: #ffffff; stroke-width: 2; stroke-linejoin: miter"/>
    </g>
    <g id="text_13">
     <!-- C12 - 12 - Manufacture of tobacco… -->
     <g style="fill: #0b0b0b" transform="translate(113.455 410.117175) scale(0.08 -0.08)">
      <use xlink:href="#DejaVuSans-43"/>
      <use xlink:href="#DejaVuSans-31" transform="translate(69.824219 0)"/>
      <use xlink:href="#DejaVuSans-32" transform="translate(133.447266 0)"/>
      <use xlink:href="#DejaVuSans-20" transform="translate(197.070312 0)"/>
      <use xlink:href="#DejaVuSans-2d" transform="translate(228.857422 0)"/>
      <use xlink:href="#DejaVuSans-20" transform="translate(264.941406 0)"/>
      <use xlink:href="#DejaVuSans-31" transform="translate(296.728516 0)"/>
      <use xlink:href="#DejaVuSans-32" transform="translate(360.351562 0)"/>
      <use xlink:href="#DejaVuSans-20" transform="translate(423.974609 0)"/>
      <use xlink:href="#DejaVuSans-2d" transform="translate(455.761719 0)"/>
      <use xlink:href="#DejaVuSans-20" transform="translate(491.845703 0)"/>
      <use xlink:href="#DejaVuSans-4d" transform="translate(523.632812 0)"/>
      <use xlink:href="#DejaVuSans-61" transform="translate(609.912109 0)"/>
      <use xlink:href="#DejaVuSans-6e" transform="translate(671.191406 0)"/>
      <use xlink:href="#DejaVuSans-75" transform="translate(734.570312 0)"/>
      <use xlink:href="#DejaVuSans-66" transform="translate(797.949219 0)"/>
      <use xlink:href="#DejaVuSans-61" transform="translate(833.154297 0)"/>
      <use xlink:href="#DejaVuSans-63" transform="translate(894.433594 0)"/>
      <use xlink:href="#DejaVuSans-74" transform="translate(949.414062 0)"/>
      <use xlink:href="#DejaVuSans-75" transform="translate(988.623047 0)"/>
      <use xlink:href="#DejaVuSans-72" transform="translate(1052.001953 0)"/>
      <use xlink:href="#DejaVuSans-65" transform="translate(1090.865234 0)"/>
      <use xlink:href="#DejaVuSans-20" transform="translate(1152.388672 0)"/>
      <use xlink:href="#DejaVuSans-6f" transform="translate(1184.175781 0)"/>
      <use xlink:href="#DejaVuSans-66" transform="translate(1245.357422 0)"/>
      <use xlink:href="#DejaVuSans-20" transform="translate(1280.5625 0)"/>
      <use xlink:href="#DejaVuSans-74" transform="translate(1312.349609 0)"/>
      <use xlink:href="#DejaVuSans-6f" transform="translate(1351.558594 0)"/>
      <use xlink:href="#DejaVuSans-62" transform="translate(1412.740234 0)"/>
      <use xlink:href="#DejaVuSans-61" transform="translate(1476.216797 0)"/>
      <use xlink:href="#DejaVuSans-63" transform="translate(1537.496094 0)"/>
      <use xlink:href="#DejaVuSans-63" transform="translate(1592.476562 0)"/>
      <use xlink:href="#DejaVuSans-6f" transform="translate(1647.457031 0)"/>
      <use xlink:href="#DejaVuSans-2026" transform="translate(1708.638672 0)"/>
     </g>
    </g>
    <g id="patch_14">
     <path d="M 91.055 421.859675 
L 107.055 421.859675 
L 107.055 416.259675 
L 91.055 416.259675 
z
" style="fill: #4a3aa7; stroke: #ffffff; stroke-width: 2; stroke-linejoin: miter"/>
    </g>
    <g id="text_14">
     <!-- A02 - 02 - Forestry and logging -->
     <g style="fill: #0b0b0b" transform="translate(113.455 421.859675) scale(0.08 -0.08)">
      <defs>
       <path id="DejaVuSans-41" d="M 2188 4044 
L 1331 1722 
L 3047 1722 
L 2188 4044 
z
M 1831 4666 
L 2547 4666 
L 4325 0 
L 3669 0 
L 3244 1197 
L 1141 1197 
L 716 0 
L 50 0 
L 1831 4666 
z
" transform="scale(0.015625)"/>
       <path id="DejaVuSans-46" d="M 628 4666 
L 3309 4666 
L 3309 4134 
L 1259 4134 
L 1259 2759 
L 3109 2759 
L 3109 2228 
L 1259 2228 
L 1259 0 
L 628 0 
L 628 4666 
z
" transform="scale(0.015625)"/>
       <path id="DejaVuSans-67" d="M 2906 1791 
Q 2906 2416 2648 2759 
Q 2391 3103 1925 3103 
Q 1463 3103 1205 2759 
Q 947 2416 947 1791 
Q 947 1169 1205 825 
Q 1463 481 1925 481 
Q 2391 481 2648 825 
Q 2906 1169 2906 1791 
z
M 3481 434 
Q 3481 -459 3084 -895 
Q 2688 -1331 1869 -1331 
Q 1566 -1331 1297 -1286 
Q 1028 -1241 775 -1147 
L 775 -588 
Q 1028 -725 1275 -790 
Q 1522 -856 1778 -856 
Q 2344 -856 2625 -561 
Q 2906 -266 2906 331 
L 2906 616 
Q 2728 306 2450 153 
Q 2172 0 1784 0 
Q 1141 0 747 490 
Q 353 981 353 1791 
Q 353 2603 747 3093 
Q 1141 3584 1784 3584 
Q 2172 3584 2450 3431 
Q 2728 3278 2906 2969 
L 2906 3500 
L 3481 3500 
L 3481 434 
z
" transform="scale(0.015625)"/>
      </defs>
      <use xlink:href="#DejaVuSans-41"/>
      <use xlink:href="#DejaVuSans-30" transform="translate(68.408203 0)"/>
      <use xlink:href="#DejaVuSans-32" transform="translate(132.03125 0)"/>
      <use xlink:href="#DejaVuSans-20" transform="translate(195.654297 0)"/>
      <use xlink:href="#DejaVuSans-2d" transform="translate(227.441406 0)"/>
      <use xlink:href="#DejaVuSans-20" transform="translate(263.525391 0)"/>
      <use xlink:href="#DejaVuSans-30" transform="translate(295.3125 0)"/>
      <use xlink:href="#DejaVuSans-32" transform="translate(358.935547 0)"/>
      <use xlink:href="#DejaVuSans-20" transform="translate(422.558594 0)"/>
      <use xlink:href="#DejaVuSans-2d" transform="translate(454.345703 0)"/>
      <use xlink:href="#DejaVuSans-20" transform="translate(490.429688 0)"/>
      <use xlink:href="#DejaVuSans-46" transform="translate(522.216797 0)"/>
      <use xlink:href="#DejaVuSans-6f" transform="translate(576.111328 0)"/>
      <use xlink:href="#DejaVuSans-72" transform="translate(637.292969 0)"/>
      <use xlink:href="#DejaVuSans-65" transform="translate(676.15625 0)"/>
      <use xlink:href="#DejaVuSans-73" transform="translate(737.679688 0)"/>
      <use xlink:href="#DejaVuSans-74" transform="translate(789.779297 0)"/>
      <use xlink:href="#DejaVuSans-72" transform="translate(828.988281 0)"/>
      <use xlink:href="#DejaVuSans-79" transform="translate(870.101562 0)"/>
      <use xlink:href="#DejaVuSans-20" transform="translate(929.28125 0)"/>
      <use xlink:href="#DejaVuSans-61" transform="translate(961.068359 0)"/>
      <use xlink:href="#DejaVuSans-6e" transform="translate(1022.347656 0)"/>
      <use xlink:href="#DejaVuSans-64" transform="translate(1085.726562 0)"/>
      <use xlink:href="#DejaVuSans-20" transform="translate(1149.203125 0)"/>
      <use xlink:href="#DejaVuSans-6c" transform="translate(1180.990234 0)"/>
      <use xlink:href="#DejaVuSans-6f" transform="translate(1208.773438 0)"/>
      <use xlink:href="#DejaVuSans-67" transform="translate(1269.955078 0)"/>
      <use xlink:href="#DejaVuSans-67" transform="translate(1333.431641 0)"/>
      <use xlink:href="#DejaVuSans-69" transform="translate(1396.908203 0)"/>
      <use xlink:href="#DejaVuSans-6e" transform="translate(1424.691406 0)"/>
      <use xlink:href="#DejaVuSans-67" transform="translate(1488.070312 0)"/>
     </g>
    </g>
    <g id="patch_15">
     <path d="M 91.055 433.602175 
L 107.055 433.602175 
L 107.055 428.002175 
L 91.055 428.002175 
z
" style="fill: #e34948; stroke: #ffffff; stroke-width: 2; stroke-linejoin: miter"/>
    </g>
    <g id="text_15">
     <!-- C13 - 13 - Manufacture of textiles -->
     <g style="fill: #0b0b0b" transform="translate(113.455 433.602175) scale(0.08 -0.08)">
      <defs>
       <path id="DejaVuSans-78" d="M 3513 3500 
L 2247 1797 
L 3578 0 
L 2900 0 
L 1881 1375 
L 863 0 
L 184 0 
L 1544 1831 
L 300 3500 
L 978 3500 
L 1906 2253 
L 2834 3500 
L 3513 3500 
z
" transform="scale(0.015625)"/>
      </defs>
      <use xlink:href="#DejaVuSans-43"/>
      <use xlink:href="#DejaVuSans-31" transform="translate(69.824219 0)"/>
      <use xlink:href="#DejaVuSans-33" transform="translate(133.447266 0)"/>
      <use xlink:href="#DejaVuSans-20" transform="translate(197.070312 0)"/>
      <use xlink:href="#DejaVuSans-2d" transform="translate(228.857422 0)"/>
      <use xlink:href="#DejaVuSans-20" transform="translate(264.941406 0)"/>
      <use xlink:href="#DejaVuSans-31" transform="translate(296.728516 0)"/>
      <use xlink:href="#DejaVuSans-33" transform="translate(360.351562 0)"/>
      <use xlink:href="#DejaVuSans-20" transform="translate(423.974609 0)"/>
      <use xlink:href="#DejaVuSans-2d" transform="translate(455.761719 0)"/>
      <use xlink:href="#DejaVuSans-20" transform="translate(491.845703 0)"/>
      <use xlink:href="#DejaVuSans-4d" transform="translate(523.632812 0)"/>
      <use xlink:href="#DejaVuSans-61" transform="translate(609.912109 0)"/>
      <use xlink:href="#DejaVuSans-6e" transform="translate(671.191406 0)"/>
      <use xlink:href="#DejaVuSans-75" transform="translate(734.570312 0)"/>
      <use xlink:href="#DejaVuSans-66" transform="translate(797.949219 0)"/>
      <use xlink:href="#DejaVuSans-61" transform="translate(833.154297 0)"/>
      <use xlink:href="#DejaVuSans-63" transform="translate(894.433594 0)"/>
      <use xlink:href="#DejaVuSans-74" transform="translate(949.414062 0)"/>
      <use xlink:href="#DejaVuSans-75" transform="translate(988.623047 0)"/>
      <use xlink:href="#DejaVuSans-72" transform="translate(1052.001953 0)"/>
      <use xlink:href="#DejaVuSans-65" transform="translate(1090.865234 0)"/>
      <use xlink:href="#DejaVuSans-20" transform="translate(1152.388672 0)"/>
      <use xlink:href="#DejaVuSans-6f" transform="translate(1184.175781 0)"/>
      <use xlink:href="#DejaVuSans-66" transform="translate(1245.357422 0)"/>
      <use xlink:href="#DejaVuSans-20" transform="translate(1280.5625 0)"/>
      <use xlink:href="#DejaVuSans-74" transform="translate(1312.349609 0)"/>
      <use xlink:href="#DejaVuSans-65" transform="translate(1351.558594 0)"/>
      <use xlink:href="#DejaVuSans-78" transform="translate(1411.332031 0)"/>
      <use xlink:href="#DejaVuSans-74" transform="translate(1470.511719 0)"/>
      <use xlink:href="#DejaVuSans-69" transform="translate(1509.720703 0)"/>
      <use xlink:href="#DejaVuSans-6c" transform="translate(1537.503906 0)"/>
      <use xlink:href="#DejaVuSans-65" transform="translate(1565.287109 0)"/>
      <use xlink:href="#DejaVuSans-73" transform="translate(1626.810547 0)"/>
     </g>
    </g>
    <g id="patch_16">
     <path d="M 91.055 445.344675 
L 107.055 445.344675 
L 107.055 439.744675 
L 91.055 439.744675 
z
" style="fill: #e87ba4; stroke: #ffffff; stroke-width: 2; stroke-linejoin: miter"/>
    </g>
    <g id="text_16">
     <!-- V99 - 99 - Activities of extrater… -->
     <g style="fill: #0b0b0b" transform="translate(113.455 445.344675) scale(0.08 -0.08)">
      <defs>
       <path id="DejaVuSans-56" d="M 1831 0 
L 50 4666 
L 709 4666 
L 2188 738 
L 3669 4666 
L 4325 4666 
L 2547 0 
L 1831 0 
z
" transform="scale(0.015625)"/>
       <path id="DejaVuSans-76" d="M 191 3500 
L 800 3500 
L 1894 563 
L 2988 3500 
L 3597 3500 
L 2284 0 
L 1503 0 
L 191 3500 
z
" transform="scale(0.015625)"/>
      </defs>
      <use xlink:href="#DejaVuSans-56"/>
      <use xlink:href="#DejaVuSans-39" transform="translate(68.408203 0)"/>
      <use xlink:href="#DejaVuSans-39" transform="translate(132.03125 0)"/>
      <use xlink:href="#DejaVuSans-20" transform="translate(195.654297 0)"/>
      <use xlink:href="#DejaVuSans-2d" transform="translate(227.441406 0)"/>
      <use xlink:href="#DejaVuSans-20" transform="translate(263.525391 0)"/>
      <use xlink:href="#DejaVuSans-39" transform="translate(295.3125 0)"/>
      <use xlink:href="#DejaVuSans-39" transform="translate(358.935547 0)"/>
      <use xlink:href="#DejaVuSans-20" transform="translate(422.558594 0)"/>
      <use xlink:href="#DejaVuSans-2d" transform="translate(454.345703 0)"/>
      <use xlink:href="#DejaVuSans-20" transform="translate(490.429688 0)"/>
      <use xlink:href="#DejaVuSans-41" transform="translate(522.216797 0)"/>
      <use xlink:href="#DejaVuSans-63" transform="translate(588.875 0)"/>
      <use xlink:href="#DejaVuSans-74" transform="translate(643.855469 0)"/>
      <use xlink:href="#DejaVuSans-69" transform="translate(683.064453 0)"/>
      <use xlink:href="#DejaVuSans-76" transform="translate(710.847656 0)"/>
      <use xlink:href="#DejaVuSans-69" transform="translate(770.027344 0)"/>
      <use xlink:href="#DejaVuSans-74" transform="translate(797.810547 0)"/>
      <use xlink:href="#DejaVuSans-69" transform="translate(837.019531 0)"/>
      <use xlink:href="#DejaVuSans-65" transform="translate(864.802734 0)"/>
      <use xlink:href="#DejaVuSans-73" transform="translate(926.326172 0)"/>
      <use xlink:href="#DejaVuSans-20" transform="translate(978.425781 0)"/>
      <use xlink:href="#DejaVuSans-6f" transform="translate(1010.212891 0)"/>
      <use xlink:href="#DejaVuSans-66" transform="translate(1071.394531 0)"/>
      <use xlink:href="#DejaVuSans-20" transform="translate(1106.599609 0)"/>
      <use xlink:href="#DejaVuSans-65" transform="translate(1138.386719 0)"/>
      <use xlink:href="#DejaVuSans-78" transform="translate(1198.160156 0)"/>
      <use xlink:href="#DejaVuSans-74" transform="translate(1257.339844 0)"/>
      <use xlink:href="#DejaVuSans-72" transform="translate(1296.548828 0)"/>
      <use xlink:href="#DejaVuSans-61" transform="translate(1337.662109 0)"/>
      <use xlink:href="#DejaVuSans-74" transform="translate(1398.941406 0)"/>
      <use xlink:href="#DejaVuSans-65" transform="translate(1438.150391 0)"/>
      <use xlink:href="#DejaVuSans-72" transform="translate(1499.673828 0)"/>
      <use xlink:href="#DejaVuSans-2026" transform="translate(1540.787109 0)"/>
     </g>
    </g>
    <g id="patch_17">
     <path d="M 91.055 457.087175 
L 107.055 457.087175 
L 107.055 451.487175 
L 91.055 451.487175 
z
" style="fill: #bdbbb2; stroke: #ffffff; stroke-width: 2; stroke-linejoin: miter"/>
    </g>
    <g id="text_17">
     <!-- Other -->
     <g style="fill: #0b0b0b" transform="translate(113.455 457.087175) scale(0.08 -0.08)">
      <defs>
       <path id="DejaVuSans-4f" d="M 2522 4238 
Q 1834 4238 1429 3725 
Q 1025 3213 1025 2328 
Q 1025 1447 1429 934 
Q 1834 422 2522 422 
Q 3209 422 3611 934 
Q 4013 1447 4013 2328 
Q 4013 3213 3611 3725 
Q 3209 4238 2522 4238 
z
M 2522 4750 
Q 3503 4750 4090 4092 
Q 4678 3434 4678 2328 
Q 4678 1225 4090 567 
Q 3503 -91 2522 -91 
Q 1538 -91 948 565 
Q 359 1222 359 2328 
Q 359 3434 948 4092 
Q 1538 4750 2522 4750 
z
" transform="scale(0.015625)"/>
      </defs>
      <use xlink:href="#DejaVuSans-4f"/>
      <use xlink:href="#DejaVuSans-74" transform="translate(78.710938 0)"/>
      <use xlink:href="#DejaVuSans-68" transform="translate(117.919922 0)"/>
      <use xlink:href="#DejaVuSans-65" transform="translate(181.298828 0)"/>
      <use xlink:href="#DejaVuSans-72" transform="translate(242.822266 0)"/>
     </g>
    </g>
   </g>
  </g>
 </g>
</svg>
